solid 
   facet normal -1.000000e+00 0.000000e+00 0.000000e+00
      outer loop
         vertex -3.520000e+01 2.270000e+01 1.200000e+01
         vertex -3.520000e+01 2.270000e+01 0.000000e+00
         vertex -3.520000e+01 -2.270000e+01 0.000000e+00
      endloop
   endfacet
   facet normal -1.000000e+00 0.000000e+00 0.000000e+00
      outer loop
         vertex -3.520000e+01 -2.270000e+01 0.000000e+00
         vertex -3.520000e+01 -2.270000e+01 1.200000e+01
         vertex -3.520000e+01 2.270000e+01 1.200000e+01
      endloop
   endfacet
   facet normal 0.000000e+00 -1.000000e+00 0.000000e+00
      outer loop
         vertex -3.520000e+01 -2.270000e+01 1.200000e+01
         vertex -3.520000e+01 -2.270000e+01 0.000000e+00
         vertex 3.520000e+01 -2.270000e+01 0.000000e+00
      endloop
   endfacet
   facet normal -0.000000e+00 -1.000000e+00 -0.000000e+00
      outer loop
         vertex 3.520000e+01 -2.270000e+01 0.000000e+00
         vertex 3.520000e+01 -2.270000e+01 1.200000e+01
         vertex -3.520000e+01 -2.270000e+01 1.200000e+01
      endloop
   endfacet
   facet normal 1.000000e+00 0.000000e+00 0.000000e+00
      outer loop
         vertex 3.520000e+01 -2.270000e+01 1.200000e+01
         vertex 3.520000e+01 -2.270000e+01 0.000000e+00
         vertex 3.520000e+01 2.270000e+01 0.000000e+00
      endloop
   endfacet
   facet normal 1.000000e+00 0.000000e+00 0.000000e+00
      outer loop
         vertex 3.520000e+01 2.270000e+01 0.000000e+00
         vertex 3.520000e+01 2.270000e+01 1.200000e+01
         vertex 3.520000e+01 -2.270000e+01 1.200000e+01
      endloop
   endfacet
   facet normal 0.000000e+00 1.000000e+00 -0.000000e+00
      outer loop
         vertex 3.520000e+01 2.270000e+01 1.200000e+01
         vertex 3.520000e+01 2.270000e+01 0.000000e+00
         vertex 1.520000e+01 2.270000e+01 3.000000e+00
      endloop
   endfacet
   facet normal 0.000000e+00 1.000000e+00 0.000000e+00
      outer loop
         vertex 3.520000e+01 2.270000e+01 0.000000e+00
         vertex -3.520000e+01 2.270000e+01 0.000000e+00
         vertex -1.520000e+01 2.270000e+01 3.000000e+00
      endloop
   endfacet
   facet normal 0.000000e+00 1.000000e+00 0.000000e+00
      outer loop
         vertex -3.520000e+01 2.270000e+01 0.000000e+00
         vertex -3.520000e+01 2.270000e+01 1.200000e+01
         vertex -1.520000e+01 2.270000e+01 3.000000e+00
      endloop
   endfacet
   facet normal 0.000000e+00 1.000000e+00 0.000000e+00
      outer loop
         vertex -3.520000e+01 2.270000e+01 1.200000e+01
         vertex -1.520000e+01 2.270000e+01 1.200000e+01
         vertex -1.520000e+01 2.270000e+01 3.000000e+00
      endloop
   endfacet
   facet normal 0.000000e+00 1.000000e+00 0.000000e+00
      outer loop
         vertex -1.520000e+01 2.270000e+01 3.000000e+00
         vertex 1.520000e+01 2.270000e+01 3.000000e+00
         vertex 3.520000e+01 2.270000e+01 0.000000e+00
      endloop
   endfacet
   facet normal -0.000000e+00 1.000000e+00 0.000000e+00
      outer loop
         vertex 1.520000e+01 2.270000e+01 3.000000e+00
         vertex 1.520000e+01 2.270000e+01 1.200000e+01
         vertex 3.520000e+01 2.270000e+01 1.200000e+01
      endloop
   endfacet
   facet normal 1.000000e+00 0.000000e+00 0.000000e+00
      outer loop
         vertex -1.520000e+01 1.970000e+01 1.200000e+01
         vertex -1.520000e+01 1.970000e+01 3.000000e+00
         vertex -1.520000e+01 2.270000e+01 3.000000e+00
      endloop
   endfacet
   facet normal 1.000000e+00 0.000000e+00 0.000000e+00
      outer loop
         vertex -1.520000e+01 2.270000e+01 3.000000e+00
         vertex -1.520000e+01 2.270000e+01 1.200000e+01
         vertex -1.520000e+01 1.970000e+01 1.200000e+01
      endloop
   endfacet
   facet normal 0.000000e+00 -1.000000e+00 0.000000e+00
      outer loop
         vertex -3.220000e+01 1.970000e+01 1.200000e+01
         vertex -3.220000e+01 1.970000e+01 3.000000e+00
         vertex -1.520000e+01 1.970000e+01 3.000000e+00
      endloop
   endfacet
   facet normal -0.000000e+00 -1.000000e+00 -0.000000e+00
      outer loop
         vertex -1.520000e+01 1.970000e+01 3.000000e+00
         vertex -1.520000e+01 1.970000e+01 1.200000e+01
         vertex -3.220000e+01 1.970000e+01 1.200000e+01
      endloop
   endfacet
   facet normal 1.000000e+00 0.000000e+00 0.000000e+00
      outer loop
         vertex -3.220000e+01 -1.970000e+01 1.200000e+01
         vertex -3.220000e+01 -1.970000e+01 3.000000e+00
         vertex -3.220000e+01 1.970000e+01 3.000000e+00
      endloop
   endfacet
   facet normal 1.000000e+00 0.000000e+00 0.000000e+00
      outer loop
         vertex -3.220000e+01 1.970000e+01 3.000000e+00
         vertex -3.220000e+01 1.970000e+01 1.200000e+01
         vertex -3.220000e+01 -1.970000e+01 1.200000e+01
      endloop
   endfacet
   facet normal 0.000000e+00 1.000000e+00 -0.000000e+00
      outer loop
         vertex 3.220000e+01 -1.970000e+01 1.200000e+01
         vertex 3.220000e+01 -1.970000e+01 3.000000e+00
         vertex -3.220000e+01 -1.970000e+01 3.000000e+00
      endloop
   endfacet
   facet normal -0.000000e+00 1.000000e+00 0.000000e+00
      outer loop
         vertex -3.220000e+01 -1.970000e+01 3.000000e+00
         vertex -3.220000e+01 -1.970000e+01 1.200000e+01
         vertex 3.220000e+01 -1.970000e+01 1.200000e+01
      endloop
   endfacet
   facet normal -1.000000e+00 0.000000e+00 0.000000e+00
      outer loop
         vertex 3.220000e+01 1.970000e+01 1.200000e+01
         vertex 3.220000e+01 1.970000e+01 3.000000e+00
         vertex 3.220000e+01 -1.970000e+01 3.000000e+00
      endloop
   endfacet
   facet normal -1.000000e+00 0.000000e+00 0.000000e+00
      outer loop
         vertex 3.220000e+01 -1.970000e+01 3.000000e+00
         vertex 3.220000e+01 -1.970000e+01 1.200000e+01
         vertex 3.220000e+01 1.970000e+01 1.200000e+01
      endloop
   endfacet
   facet normal 0.000000e+00 -1.000000e+00 0.000000e+00
      outer loop
         vertex 1.520000e+01 1.970000e+01 1.200000e+01
         vertex 1.520000e+01 1.970000e+01 3.000000e+00
         vertex 3.220000e+01 1.970000e+01 3.000000e+00
      endloop
   endfacet
   facet normal -0.000000e+00 -1.000000e+00 -0.000000e+00
      outer loop
         vertex 3.220000e+01 1.970000e+01 3.000000e+00
         vertex 3.220000e+01 1.970000e+01 1.200000e+01
         vertex 1.520000e+01 1.970000e+01 1.200000e+01
      endloop
   endfacet
   facet normal -1.000000e+00 0.000000e+00 0.000000e+00
      outer loop
         vertex 1.520000e+01 2.270000e+01 1.200000e+01
         vertex 1.520000e+01 2.270000e+01 3.000000e+00
         vertex 1.520000e+01 1.970000e+01 3.000000e+00
      endloop
   endfacet
   facet normal -1.000000e+00 0.000000e+00 0.000000e+00
      outer loop
         vertex 1.520000e+01 1.970000e+01 3.000000e+00
         vertex 1.520000e+01 1.970000e+01 1.200000e+01
         vertex 1.520000e+01 2.270000e+01 1.200000e+01
      endloop
   endfacet
   facet normal 0.000000e+00 0.000000e+00 -1.000000e+00
      outer loop
         vertex 3.520000e+01 -2.270000e+01 0.000000e+00
         vertex -3.520000e+01 -2.270000e+01 0.000000e+00
         vertex -3.520000e+01 2.270000e+01 0.000000e+00
      endloop
   endfacet
   facet normal -0.000000e+00 -0.000000e+00 -1.000000e+00
      outer loop
         vertex -3.520000e+01 2.270000e+01 0.000000e+00
         vertex 3.520000e+01 2.270000e+01 0.000000e+00
         vertex 3.520000e+01 -2.270000e+01 0.000000e+00
      endloop
   endfacet
   facet normal -0.000000e+00 0.000000e+00 1.000000e+00
      outer loop
         vertex -1.520000e+01 2.270000e+01 1.200000e+01
         vertex -3.520000e+01 2.270000e+01 1.200000e+01
         vertex -3.220000e+01 1.970000e+01 1.200000e+01
      endloop
   endfacet
   facet normal 0.000000e+00 0.000000e+00 1.000000e+00
      outer loop
         vertex -3.520000e+01 2.270000e+01 1.200000e+01
         vertex -3.520000e+01 -2.270000e+01 1.200000e+01
         vertex -3.220000e+01 -1.970000e+01 1.200000e+01
      endloop
   endfacet
   facet normal 0.000000e+00 0.000000e+00 1.000000e+00
      outer loop
         vertex -3.520000e+01 -2.270000e+01 1.200000e+01
         vertex 3.520000e+01 -2.270000e+01 1.200000e+01
         vertex 3.220000e+01 -1.970000e+01 1.200000e+01
      endloop
   endfacet
   facet normal 0.000000e+00 0.000000e+00 1.000000e+00
      outer loop
         vertex 3.520000e+01 -2.270000e+01 1.200000e+01
         vertex 3.520000e+01 2.270000e+01 1.200000e+01
         vertex 3.220000e+01 1.970000e+01 1.200000e+01
      endloop
   endfacet
   facet normal -0.000000e+00 0.000000e+00 1.000000e+00
      outer loop
         vertex 3.520000e+01 2.270000e+01 1.200000e+01
         vertex 1.520000e+01 2.270000e+01 1.200000e+01
         vertex 3.220000e+01 1.970000e+01 1.200000e+01
      endloop
   endfacet
   facet normal 0.000000e+00 0.000000e+00 1.000000e+00
      outer loop
         vertex 1.520000e+01 2.270000e+01 1.200000e+01
         vertex 1.520000e+01 1.970000e+01 1.200000e+01
         vertex 3.220000e+01 1.970000e+01 1.200000e+01
      endloop
   endfacet
   facet normal -0.000000e+00 0.000000e+00 1.000000e+00
      outer loop
         vertex 3.220000e+01 1.970000e+01 1.200000e+01
         vertex 3.220000e+01 -1.970000e+01 1.200000e+01
         vertex 3.520000e+01 -2.270000e+01 1.200000e+01
      endloop
   endfacet
   facet normal -0.000000e+00 0.000000e+00 1.000000e+00
      outer loop
         vertex 3.220000e+01 -1.970000e+01 1.200000e+01
         vertex -3.220000e+01 -1.970000e+01 1.200000e+01
         vertex -3.520000e+01 -2.270000e+01 1.200000e+01
      endloop
   endfacet
   facet normal 0.000000e+00 0.000000e+00 1.000000e+00
      outer loop
         vertex -3.220000e+01 -1.970000e+01 1.200000e+01
         vertex -3.220000e+01 1.970000e+01 1.200000e+01
         vertex -3.520000e+01 2.270000e+01 1.200000e+01
      endloop
   endfacet
   facet normal 0.000000e+00 -0.000000e+00 1.000000e+00
      outer loop
         vertex -3.220000e+01 1.970000e+01 1.200000e+01
         vertex -1.520000e+01 1.970000e+01 1.200000e+01
         vertex -1.520000e+01 2.270000e+01 1.200000e+01
      endloop
   endfacet
   facet normal -0.000000e+00 0.000000e+00 1.000000e+00
      outer loop
         vertex 3.220000e+01 1.970000e+01 3.000000e+00
         vertex 1.520000e+01 1.970000e+01 3.000000e+00
         vertex 2.700000e+01 1.400000e+01 3.000000e+00
      endloop
   endfacet
   facet normal 0.000000e+00 0.000000e+00 1.000000e+00
      outer loop
         vertex 1.520000e+01 1.970000e+01 3.000000e+00
         vertex 1.520000e+01 2.270000e+01 3.000000e+00
         vertex -1.520000e+01 2.270000e+01 3.000000e+00
      endloop
   endfacet
   facet normal 0.000000e+00 0.000000e+00 1.000000e+00
      outer loop
         vertex -1.520000e+01 2.270000e+01 3.000000e+00
         vertex -1.520000e+01 1.970000e+01 3.000000e+00
         vertex 1.520000e+01 1.970000e+01 3.000000e+00
      endloop
   endfacet
   facet normal -0.000000e+00 0.000000e+00 1.000000e+00
      outer loop
         vertex -1.520000e+01 1.970000e+01 3.000000e+00
         vertex -3.220000e+01 1.970000e+01 3.000000e+00
         vertex -2.700000e+01 1.400000e+01 3.000000e+00
      endloop
   endfacet
   facet normal 0.000000e+00 0.000000e+00 1.000000e+00
      outer loop
         vertex -3.220000e+01 1.970000e+01 3.000000e+00
         vertex -3.220000e+01 -1.970000e+01 3.000000e+00
         vertex -2.700000e+01 -1.400000e+01 3.000000e+00
      endloop
   endfacet
   facet normal 0.000000e+00 0.000000e+00 1.000000e+00
      outer loop
         vertex -3.220000e+01 -1.970000e+01 3.000000e+00
         vertex 3.220000e+01 -1.970000e+01 3.000000e+00
         vertex 2.700000e+01 -1.400000e+01 3.000000e+00
      endloop
   endfacet
   facet normal 0.000000e+00 0.000000e+00 1.000000e+00
      outer loop
         vertex 3.220000e+01 -1.970000e+01 3.000000e+00
         vertex 3.220000e+01 1.970000e+01 3.000000e+00
         vertex 2.700000e+01 1.400000e+01 3.000000e+00
      endloop
   endfacet
   facet normal 0.000000e+00 0.000000e+00 1.000000e+00
      outer loop
         vertex 1.520000e+01 1.100000e+01 3.000000e+00
         vertex 1.520000e+01 1.400000e+01 3.000000e+00
         vertex -1.520000e+01 1.400000e+01 3.000000e+00
      endloop
   endfacet
   facet normal 0.000000e+00 0.000000e+00 1.000000e+00
      outer loop
         vertex 1.520000e+01 1.400000e+01 3.000000e+00
         vertex 2.700000e+01 1.400000e+01 3.000000e+00
         vertex 1.520000e+01 1.970000e+01 3.000000e+00
      endloop
   endfacet
   facet normal -0.000000e+00 0.000000e+00 1.000000e+00
      outer loop
         vertex 2.700000e+01 1.400000e+01 3.000000e+00
         vertex 2.700000e+01 -1.400000e+01 3.000000e+00
         vertex 3.220000e+01 -1.970000e+01 3.000000e+00
      endloop
   endfacet
   facet normal -0.000000e+00 0.000000e+00 1.000000e+00
      outer loop
         vertex 2.700000e+01 -1.400000e+01 3.000000e+00
         vertex -2.700000e+01 -1.400000e+01 3.000000e+00
         vertex -3.220000e+01 -1.970000e+01 3.000000e+00
      endloop
   endfacet
   facet normal 0.000000e+00 0.000000e+00 1.000000e+00
      outer loop
         vertex -2.700000e+01 -1.400000e+01 3.000000e+00
         vertex -2.700000e+01 1.400000e+01 3.000000e+00
         vertex -3.220000e+01 1.970000e+01 3.000000e+00
      endloop
   endfacet
   facet normal 0.000000e+00 -0.000000e+00 1.000000e+00
      outer loop
         vertex -2.700000e+01 1.400000e+01 3.000000e+00
         vertex -1.520000e+01 1.400000e+01 3.000000e+00
         vertex -1.520000e+01 1.970000e+01 3.000000e+00
      endloop
   endfacet
   facet normal 0.000000e+00 0.000000e+00 1.000000e+00
      outer loop
         vertex -1.520000e+01 1.400000e+01 3.000000e+00
         vertex -1.520000e+01 1.100000e+01 3.000000e+00
         vertex 1.520000e+01 1.100000e+01 3.000000e+00
      endloop
   endfacet
   facet normal -0.000000e+00 0.000000e+00 1.000000e+00
      outer loop
         vertex -1.520000e+01 1.100000e+01 3.000000e+00
         vertex -2.400000e+01 1.100000e+01 3.000000e+00
         vertex -2.400000e+01 -1.100000e+01 3.000000e+00
      endloop
   endfacet
   facet normal 0.000000e+00 0.000000e+00 1.000000e+00
      outer loop
         vertex -2.400000e+01 -1.100000e+01 3.000000e+00
         vertex 2.400000e+01 -1.100000e+01 3.000000e+00
         vertex 1.520000e+01 1.100000e+01 3.000000e+00
      endloop
   endfacet
   facet normal 0.000000e+00 0.000000e+00 1.000000e+00
      outer loop
         vertex 2.400000e+01 -1.100000e+01 3.000000e+00
         vertex 2.400000e+01 1.100000e+01 3.000000e+00
         vertex 1.520000e+01 1.100000e+01 3.000000e+00
      endloop
   endfacet
   facet normal -0.000000e+00 0.000000e+00 1.000000e+00
      outer loop
         vertex 1.520000e+01 1.970000e+01 3.000000e+00
         vertex -1.520000e+01 1.970000e+01 3.000000e+00
         vertex 1.520000e+01 1.400000e+01 3.000000e+00
      endloop
   endfacet
   facet normal 0.000000e+00 0.000000e+00 1.000000e+00
      outer loop
         vertex -1.520000e+01 1.400000e+01 3.000000e+00
         vertex 1.520000e+01 1.400000e+01 3.000000e+00
         vertex -1.520000e+01 1.970000e+01 3.000000e+00
      endloop
   endfacet
   facet normal -0.000000e+00 0.000000e+00 1.000000e+00
      outer loop
         vertex 1.520000e+01 1.100000e+01 3.000000e+00
         vertex -1.520000e+01 1.100000e+01 3.000000e+00
         vertex -2.400000e+01 -1.100000e+01 3.000000e+00
      endloop
   endfacet
   facet normal 0.000000e+00 1.000000e+00 -0.000000e+00
      outer loop
         vertex 2.700000e+01 1.400000e+01 8.000000e+00
         vertex 2.700000e+01 1.400000e+01 3.000000e+00
         vertex 1.520000e+01 1.400000e+01 3.000000e+00
      endloop
   endfacet
   facet normal -0.000000e+00 1.000000e+00 0.000000e+00
      outer loop
         vertex 1.520000e+01 1.400000e+01 3.000000e+00
         vertex 1.520000e+01 1.400000e+01 8.000000e+00
         vertex 2.700000e+01 1.400000e+01 8.000000e+00
      endloop
   endfacet
   facet normal 1.000000e+00 0.000000e+00 0.000000e+00
      outer loop
         vertex 2.700000e+01 -1.400000e+01 8.000000e+00
         vertex 2.700000e+01 -1.400000e+01 3.000000e+00
         vertex 2.700000e+01 1.400000e+01 3.000000e+00
      endloop
   endfacet
   facet normal 1.000000e+00 0.000000e+00 0.000000e+00
      outer loop
         vertex 2.700000e+01 1.400000e+01 3.000000e+00
         vertex 2.700000e+01 1.400000e+01 8.000000e+00
         vertex 2.700000e+01 -1.400000e+01 8.000000e+00
      endloop
   endfacet
   facet normal 0.000000e+00 -1.000000e+00 0.000000e+00
      outer loop
         vertex -2.700000e+01 -1.400000e+01 8.000000e+00
         vertex -2.700000e+01 -1.400000e+01 3.000000e+00
         vertex 2.700000e+01 -1.400000e+01 3.000000e+00
      endloop
   endfacet
   facet normal -0.000000e+00 -1.000000e+00 -0.000000e+00
      outer loop
         vertex 2.700000e+01 -1.400000e+01 3.000000e+00
         vertex 2.700000e+01 -1.400000e+01 8.000000e+00
         vertex -2.700000e+01 -1.400000e+01 8.000000e+00
      endloop
   endfacet
   facet normal -1.000000e+00 0.000000e+00 0.000000e+00
      outer loop
         vertex -2.700000e+01 1.400000e+01 8.000000e+00
         vertex -2.700000e+01 1.400000e+01 3.000000e+00
         vertex -2.700000e+01 -1.400000e+01 3.000000e+00
      endloop
   endfacet
   facet normal -1.000000e+00 0.000000e+00 0.000000e+00
      outer loop
         vertex -2.700000e+01 -1.400000e+01 3.000000e+00
         vertex -2.700000e+01 -1.400000e+01 8.000000e+00
         vertex -2.700000e+01 1.400000e+01 8.000000e+00
      endloop
   endfacet
   facet normal 0.000000e+00 1.000000e+00 -0.000000e+00
      outer loop
         vertex -1.520000e+01 1.400000e+01 8.000000e+00
         vertex -1.520000e+01 1.400000e+01 3.000000e+00
         vertex -2.700000e+01 1.400000e+01 3.000000e+00
      endloop
   endfacet
   facet normal -0.000000e+00 1.000000e+00 0.000000e+00
      outer loop
         vertex -2.700000e+01 1.400000e+01 3.000000e+00
         vertex -2.700000e+01 1.400000e+01 8.000000e+00
         vertex -1.520000e+01 1.400000e+01 8.000000e+00
      endloop
   endfacet
   facet normal 1.000000e+00 0.000000e+00 0.000000e+00
      outer loop
         vertex -1.520000e+01 1.100000e+01 8.000000e+00
         vertex -1.520000e+01 1.100000e+01 3.000000e+00
         vertex -1.520000e+01 1.400000e+01 3.000000e+00
      endloop
   endfacet
   facet normal 1.000000e+00 0.000000e+00 0.000000e+00
      outer loop
         vertex -1.520000e+01 1.400000e+01 3.000000e+00
         vertex -1.520000e+01 1.400000e+01 8.000000e+00
         vertex -1.520000e+01 1.100000e+01 8.000000e+00
      endloop
   endfacet
   facet normal 0.000000e+00 -1.000000e+00 0.000000e+00
      outer loop
         vertex -2.400000e+01 1.100000e+01 8.000000e+00
         vertex -2.400000e+01 1.100000e+01 3.000000e+00
         vertex -1.520000e+01 1.100000e+01 3.000000e+00
      endloop
   endfacet
   facet normal -0.000000e+00 -1.000000e+00 -0.000000e+00
      outer loop
         vertex -1.520000e+01 1.100000e+01 3.000000e+00
         vertex -1.520000e+01 1.100000e+01 8.000000e+00
         vertex -2.400000e+01 1.100000e+01 8.000000e+00
      endloop
   endfacet
   facet normal 1.000000e+00 0.000000e+00 0.000000e+00
      outer loop
         vertex -2.400000e+01 -1.100000e+01 8.000000e+00
         vertex -2.400000e+01 -1.100000e+01 3.000000e+00
         vertex -2.400000e+01 1.100000e+01 3.000000e+00
      endloop
   endfacet
   facet normal 1.000000e+00 0.000000e+00 0.000000e+00
      outer loop
         vertex -2.400000e+01 1.100000e+01 3.000000e+00
         vertex -2.400000e+01 1.100000e+01 8.000000e+00
         vertex -2.400000e+01 -1.100000e+01 8.000000e+00
      endloop
   endfacet
   facet normal 0.000000e+00 1.000000e+00 -0.000000e+00
      outer loop
         vertex 2.400000e+01 -1.100000e+01 8.000000e+00
         vertex 2.400000e+01 -1.100000e+01 3.000000e+00
         vertex -2.400000e+01 -1.100000e+01 3.000000e+00
      endloop
   endfacet
   facet normal -0.000000e+00 1.000000e+00 0.000000e+00
      outer loop
         vertex -2.400000e+01 -1.100000e+01 3.000000e+00
         vertex -2.400000e+01 -1.100000e+01 8.000000e+00
         vertex 2.400000e+01 -1.100000e+01 8.000000e+00
      endloop
   endfacet
   facet normal -1.000000e+00 0.000000e+00 0.000000e+00
      outer loop
         vertex 2.400000e+01 1.100000e+01 8.000000e+00
         vertex 2.400000e+01 1.100000e+01 3.000000e+00
         vertex 2.400000e+01 -1.100000e+01 3.000000e+00
      endloop
   endfacet
   facet normal -1.000000e+00 0.000000e+00 0.000000e+00
      outer loop
         vertex 2.400000e+01 -1.100000e+01 3.000000e+00
         vertex 2.400000e+01 -1.100000e+01 8.000000e+00
         vertex 2.400000e+01 1.100000e+01 8.000000e+00
      endloop
   endfacet
   facet normal 0.000000e+00 -1.000000e+00 0.000000e+00
      outer loop
         vertex 1.520000e+01 1.100000e+01 8.000000e+00
         vertex 1.520000e+01 1.100000e+01 3.000000e+00
         vertex 2.400000e+01 1.100000e+01 3.000000e+00
      endloop
   endfacet
   facet normal -0.000000e+00 -1.000000e+00 -0.000000e+00
      outer loop
         vertex 2.400000e+01 1.100000e+01 3.000000e+00
         vertex 2.400000e+01 1.100000e+01 8.000000e+00
         vertex 1.520000e+01 1.100000e+01 8.000000e+00
      endloop
   endfacet
   facet normal -1.000000e+00 0.000000e+00 0.000000e+00
      outer loop
         vertex 1.520000e+01 1.400000e+01 8.000000e+00
         vertex 1.520000e+01 1.400000e+01 3.000000e+00
         vertex 1.520000e+01 1.100000e+01 3.000000e+00
      endloop
   endfacet
   facet normal -1.000000e+00 0.000000e+00 0.000000e+00
      outer loop
         vertex 1.520000e+01 1.100000e+01 3.000000e+00
         vertex 1.520000e+01 1.100000e+01 8.000000e+00
         vertex 1.520000e+01 1.400000e+01 8.000000e+00
      endloop
   endfacet
   facet normal 0.000000e+00 0.000000e+00 1.000000e+00
      outer loop
         vertex 2.700000e+01 -1.400000e+01 8.000000e+00
         vertex 2.700000e+01 1.400000e+01 8.000000e+00
         vertex 2.400000e+01 1.100000e+01 8.000000e+00
      endloop
   endfacet
   facet normal -0.000000e+00 0.000000e+00 1.000000e+00
      outer loop
         vertex 2.700000e+01 1.400000e+01 8.000000e+00
         vertex 1.520000e+01 1.400000e+01 8.000000e+00
         vertex 2.400000e+01 1.100000e+01 8.000000e+00
      endloop
   endfacet
   facet normal 0.000000e+00 0.000000e+00 1.000000e+00
      outer loop
         vertex 1.520000e+01 1.400000e+01 8.000000e+00
         vertex 1.520000e+01 1.100000e+01 8.000000e+00
         vertex 2.400000e+01 1.100000e+01 8.000000e+00
      endloop
   endfacet
   facet normal -0.000000e+00 0.000000e+00 1.000000e+00
      outer loop
         vertex 2.400000e+01 1.100000e+01 8.000000e+00
         vertex 2.400000e+01 -1.100000e+01 8.000000e+00
         vertex 2.700000e+01 -1.400000e+01 8.000000e+00
      endloop
   endfacet
   facet normal -0.000000e+00 0.000000e+00 1.000000e+00
      outer loop
         vertex 2.400000e+01 -1.100000e+01 8.000000e+00
         vertex -2.400000e+01 -1.100000e+01 8.000000e+00
         vertex 2.700000e+01 -1.400000e+01 8.000000e+00
      endloop
   endfacet
   facet normal 0.000000e+00 0.000000e+00 1.000000e+00
      outer loop
         vertex -2.400000e+01 -1.100000e+01 8.000000e+00
         vertex -2.400000e+01 1.100000e+01 8.000000e+00
         vertex -2.700000e+01 1.400000e+01 8.000000e+00
      endloop
   endfacet
   facet normal 0.000000e+00 -0.000000e+00 1.000000e+00
      outer loop
         vertex -2.400000e+01 1.100000e+01 8.000000e+00
         vertex -1.520000e+01 1.100000e+01 8.000000e+00
         vertex -1.520000e+01 1.400000e+01 8.000000e+00
      endloop
   endfacet
   facet normal -0.000000e+00 0.000000e+00 1.000000e+00
      outer loop
         vertex -1.520000e+01 1.400000e+01 8.000000e+00
         vertex -2.700000e+01 1.400000e+01 8.000000e+00
         vertex -2.400000e+01 1.100000e+01 8.000000e+00
      endloop
   endfacet
   facet normal 0.000000e+00 0.000000e+00 1.000000e+00
      outer loop
         vertex -2.700000e+01 1.400000e+01 8.000000e+00
         vertex -2.700000e+01 -1.400000e+01 8.000000e+00
         vertex -2.400000e+01 -1.100000e+01 8.000000e+00
      endloop
   endfacet
   facet normal 0.000000e+00 0.000000e+00 1.000000e+00
      outer loop
         vertex -2.700000e+01 -1.400000e+01 8.000000e+00
         vertex 2.700000e+01 -1.400000e+01 8.000000e+00
         vertex -2.400000e+01 -1.100000e+01 8.000000e+00
      endloop
   endfacet
endsolid
