solid 
   facet normal 0.000000e+00 0.000000e+00 1.000000e+00
      outer loop
         vertex -2.306602e+01 -1.155000e+01 2.100000e+00
         vertex -2.320000e+01 -1.205000e+01 2.100000e+00
         vertex -2.220000e+01 -1.105000e+01 2.100000e+00
      endloop
   endfacet
   facet normal 0.000000e+00 0.000000e+00 1.000000e+00
      outer loop
         vertex -2.320000e+01 -1.205000e+01 2.100000e+00
         vertex -2.320000e+01 -1.620000e+01 2.100000e+00
         vertex -1.961924e+01 -1.149415e+01 2.100000e+00
      endloop
   endfacet
   facet normal 0.000000e+00 0.000000e+00 1.000000e+00
      outer loop
         vertex -2.320000e+01 -1.620000e+01 2.100000e+00
         vertex 2.320000e+01 -1.620000e+01 2.100000e+00
         vertex 2.200000e+00 -1.200000e+01 2.100000e+00
      endloop
   endfacet
   facet normal 0.000000e+00 0.000000e+00 1.000000e+00
      outer loop
         vertex 2.320000e+01 -1.620000e+01 2.100000e+00
         vertex 2.320000e+01 -1.205000e+01 2.100000e+00
         vertex 1.961924e+01 -1.149415e+01 2.100000e+00
      endloop
   endfacet
   facet normal 0.000000e+00 0.000000e+00 1.000000e+00
      outer loop
         vertex 2.320000e+01 -1.205000e+01 2.100000e+00
         vertex 2.306602e+01 -1.155000e+01 2.100000e+00
         vertex 2.270000e+01 -1.118397e+01 2.100000e+00
      endloop
   endfacet
   facet normal 0.000000e+00 0.000000e+00 1.000000e+00
      outer loop
         vertex 2.270000e+01 -1.118397e+01 2.100000e+00
         vertex 2.220000e+01 -1.105000e+01 2.100000e+00
         vertex 2.320000e+01 -1.205000e+01 2.100000e+00
      endloop
   endfacet
   facet normal -0.000000e+00 0.000000e+00 1.000000e+00
      outer loop
         vertex 2.220000e+01 -1.105000e+01 2.100000e+00
         vertex 2.086510e+01 -1.105000e+01 2.100000e+00
         vertex 2.320000e+01 -1.205000e+01 2.100000e+00
      endloop
   endfacet
   facet normal -0.000000e+00 0.000000e+00 1.000000e+00
      outer loop
         vertex 2.086510e+01 -1.105000e+01 2.100000e+00
         vertex 1.961924e+01 -1.149415e+01 2.100000e+00
         vertex 2.320000e+01 -1.205000e+01 2.100000e+00
      endloop
   endfacet
   facet normal 0.000000e+00 0.000000e+00 1.000000e+00
      outer loop
         vertex 1.961924e+01 -1.149415e+01 2.100000e+00
         vertex 1.832405e+01 -1.122595e+01 2.100000e+00
         vertex 2.320000e+01 -1.620000e+01 2.100000e+00
      endloop
   endfacet
   facet normal 0.000000e+00 0.000000e+00 1.000000e+00
      outer loop
         vertex 1.832405e+01 -1.122595e+01 2.100000e+00
         vertex 1.735703e+01 -1.032356e+01 2.100000e+00
         vertex 8.400000e+00 -1.200000e+01 2.100000e+00
      endloop
   endfacet
   facet normal 0.000000e+00 0.000000e+00 1.000000e+00
      outer loop
         vertex 1.735703e+01 -1.032356e+01 2.100000e+00
         vertex 1.700000e+01 -9.050000e+00 2.100000e+00
         vertex 8.400000e+00 -1.200000e+01 2.100000e+00
      endloop
   endfacet
   facet normal 0.000000e+00 0.000000e+00 1.000000e+00
      outer loop
         vertex 1.700000e+01 -9.050000e+00 2.100000e+00
         vertex 1.735703e+01 -7.776436e+00 2.100000e+00
         vertex 8.400000e+00 -1.200000e+01 2.100000e+00
      endloop
   endfacet
   facet normal 0.000000e+00 -0.000000e+00 1.000000e+00
      outer loop
         vertex 1.735703e+01 -7.776436e+00 2.100000e+00
         vertex 1.832405e+01 -6.874053e+00 2.100000e+00
         vertex 1.832405e+01 6.874053e+00 2.100000e+00
      endloop
   endfacet
   facet normal 0.000000e+00 -0.000000e+00 1.000000e+00
      outer loop
         vertex 1.832405e+01 -6.874053e+00 2.100000e+00
         vertex 1.961924e+01 -6.605852e+00 2.100000e+00
         vertex 1.961924e+01 6.605852e+00 2.100000e+00
      endloop
   endfacet
   facet normal 0.000000e+00 -0.000000e+00 1.000000e+00
      outer loop
         vertex 1.961924e+01 -6.605852e+00 2.100000e+00
         vertex 2.086510e+01 -7.050000e+00 2.100000e+00
         vertex 2.320000e+01 -6.050000e+00 2.100000e+00
      endloop
   endfacet
   facet normal 0.000000e+00 -0.000000e+00 1.000000e+00
      outer loop
         vertex 2.086510e+01 -7.050000e+00 2.100000e+00
         vertex 2.220000e+01 -7.050000e+00 2.100000e+00
         vertex 2.320000e+01 -6.050000e+00 2.100000e+00
      endloop
   endfacet
   facet normal 0.000000e+00 -0.000000e+00 1.000000e+00
      outer loop
         vertex 2.220000e+01 -7.050000e+00 2.100000e+00
         vertex 2.270000e+01 -6.916026e+00 2.100000e+00
         vertex 2.306602e+01 -6.550000e+00 2.100000e+00
      endloop
   endfacet
   facet normal 0.000000e+00 0.000000e+00 1.000000e+00
      outer loop
         vertex 2.306602e+01 -6.550000e+00 2.100000e+00
         vertex 2.320000e+01 -6.050000e+00 2.100000e+00
         vertex 2.220000e+01 -7.050000e+00 2.100000e+00
      endloop
   endfacet
   facet normal 0.000000e+00 0.000000e+00 1.000000e+00
      outer loop
         vertex 2.320000e+01 -6.050000e+00 2.100000e+00
         vertex 2.320000e+01 6.050000e+00 2.100000e+00
         vertex 1.961924e+01 -6.605852e+00 2.100000e+00
      endloop
   endfacet
   facet normal 0.000000e+00 0.000000e+00 1.000000e+00
      outer loop
         vertex 2.320000e+01 6.050000e+00 2.100000e+00
         vertex 2.306602e+01 6.550000e+00 2.100000e+00
         vertex 2.270000e+01 6.916026e+00 2.100000e+00
      endloop
   endfacet
   facet normal 0.000000e+00 0.000000e+00 1.000000e+00
      outer loop
         vertex 2.270000e+01 6.916026e+00 2.100000e+00
         vertex 2.220000e+01 7.050000e+00 2.100000e+00
         vertex 2.320000e+01 6.050000e+00 2.100000e+00
      endloop
   endfacet
   facet normal -0.000000e+00 0.000000e+00 1.000000e+00
      outer loop
         vertex 2.220000e+01 7.050000e+00 2.100000e+00
         vertex 2.086510e+01 7.050000e+00 2.100000e+00
         vertex 2.320000e+01 6.050000e+00 2.100000e+00
      endloop
   endfacet
   facet normal -0.000000e+00 0.000000e+00 1.000000e+00
      outer loop
         vertex 2.086510e+01 7.050000e+00 2.100000e+00
         vertex 1.961924e+01 6.605852e+00 2.100000e+00
         vertex 2.320000e+01 6.050000e+00 2.100000e+00
      endloop
   endfacet
   facet normal 0.000000e+00 0.000000e+00 1.000000e+00
      outer loop
         vertex 1.961924e+01 6.605852e+00 2.100000e+00
         vertex 1.832405e+01 6.874053e+00 2.100000e+00
         vertex 1.832405e+01 -6.874053e+00 2.100000e+00
      endloop
   endfacet
   facet normal 0.000000e+00 0.000000e+00 1.000000e+00
      outer loop
         vertex 1.832405e+01 6.874053e+00 2.100000e+00
         vertex 1.735703e+01 7.776436e+00 2.100000e+00
         vertex 1.735703e+01 -7.776436e+00 2.100000e+00
      endloop
   endfacet
   facet normal 0.000000e+00 0.000000e+00 1.000000e+00
      outer loop
         vertex 1.735703e+01 7.776436e+00 2.100000e+00
         vertex 1.700000e+01 9.050000e+00 2.100000e+00
         vertex 8.400000e+00 1.200000e+01 2.100000e+00
      endloop
   endfacet
   facet normal 0.000000e+00 0.000000e+00 1.000000e+00
      outer loop
         vertex 1.700000e+01 9.050000e+00 2.100000e+00
         vertex 1.735703e+01 1.032356e+01 2.100000e+00
         vertex 8.400000e+00 1.200000e+01 2.100000e+00
      endloop
   endfacet
   facet normal 0.000000e+00 0.000000e+00 1.000000e+00
      outer loop
         vertex 1.735703e+01 1.032356e+01 2.100000e+00
         vertex 1.832405e+01 1.122595e+01 2.100000e+00
         vertex 8.400000e+00 1.200000e+01 2.100000e+00
      endloop
   endfacet
   facet normal 0.000000e+00 -0.000000e+00 1.000000e+00
      outer loop
         vertex 1.832405e+01 1.122595e+01 2.100000e+00
         vertex 1.961924e+01 1.149415e+01 2.100000e+00
         vertex 2.320000e+01 1.620000e+01 2.100000e+00
      endloop
   endfacet
   facet normal 0.000000e+00 -0.000000e+00 1.000000e+00
      outer loop
         vertex 1.961924e+01 1.149415e+01 2.100000e+00
         vertex 2.086510e+01 1.105000e+01 2.100000e+00
         vertex 2.320000e+01 1.205000e+01 2.100000e+00
      endloop
   endfacet
   facet normal 0.000000e+00 -0.000000e+00 1.000000e+00
      outer loop
         vertex 2.086510e+01 1.105000e+01 2.100000e+00
         vertex 2.220000e+01 1.105000e+01 2.100000e+00
         vertex 2.320000e+01 1.205000e+01 2.100000e+00
      endloop
   endfacet
   facet normal 0.000000e+00 -0.000000e+00 1.000000e+00
      outer loop
         vertex 2.220000e+01 1.105000e+01 2.100000e+00
         vertex 2.270000e+01 1.118397e+01 2.100000e+00
         vertex 2.306602e+01 1.155000e+01 2.100000e+00
      endloop
   endfacet
   facet normal 0.000000e+00 0.000000e+00 1.000000e+00
      outer loop
         vertex 2.306602e+01 1.155000e+01 2.100000e+00
         vertex 2.320000e+01 1.205000e+01 2.100000e+00
         vertex 2.220000e+01 1.105000e+01 2.100000e+00
      endloop
   endfacet
   facet normal 0.000000e+00 0.000000e+00 1.000000e+00
      outer loop
         vertex 2.320000e+01 1.205000e+01 2.100000e+00
         vertex 2.320000e+01 1.620000e+01 2.100000e+00
         vertex 1.961924e+01 1.149415e+01 2.100000e+00
      endloop
   endfacet
   facet normal -0.000000e+00 0.000000e+00 1.000000e+00
      outer loop
         vertex 2.320000e+01 1.620000e+01 2.100000e+00
         vertex -2.320000e+01 1.620000e+01 2.100000e+00
         vertex 2.200000e+00 1.200000e+01 2.100000e+00
      endloop
   endfacet
   facet normal -0.000000e+00 0.000000e+00 1.000000e+00
      outer loop
         vertex -2.320000e+01 1.620000e+01 2.100000e+00
         vertex -2.320000e+01 1.205000e+01 2.100000e+00
         vertex -1.961924e+01 1.149415e+01 2.100000e+00
      endloop
   endfacet
   facet normal -0.000000e+00 -0.000000e+00 1.000000e+00
      outer loop
         vertex -2.320000e+01 1.205000e+01 2.100000e+00
         vertex -2.306602e+01 1.155000e+01 2.100000e+00
         vertex -2.220000e+01 1.105000e+01 2.100000e+00
      endloop
   endfacet
   facet normal -0.000000e+00 -0.000000e+00 1.000000e+00
      outer loop
         vertex -2.306602e+01 1.155000e+01 2.100000e+00
         vertex -2.270000e+01 1.118397e+01 2.100000e+00
         vertex -2.220000e+01 1.105000e+01 2.100000e+00
      endloop
   endfacet
   facet normal 0.000000e+00 0.000000e+00 1.000000e+00
      outer loop
         vertex -2.220000e+01 1.105000e+01 2.100000e+00
         vertex -2.086510e+01 1.105000e+01 2.100000e+00
         vertex -2.320000e+01 1.205000e+01 2.100000e+00
      endloop
   endfacet
   facet normal 0.000000e+00 0.000000e+00 1.000000e+00
      outer loop
         vertex -2.086510e+01 1.105000e+01 2.100000e+00
         vertex -1.961924e+01 1.149415e+01 2.100000e+00
         vertex -2.320000e+01 1.205000e+01 2.100000e+00
      endloop
   endfacet
   facet normal 0.000000e+00 0.000000e+00 1.000000e+00
      outer loop
         vertex -1.961924e+01 1.149415e+01 2.100000e+00
         vertex -1.832405e+01 1.122595e+01 2.100000e+00
         vertex -2.320000e+01 1.620000e+01 2.100000e+00
      endloop
   endfacet
   facet normal 0.000000e+00 -0.000000e+00 1.000000e+00
      outer loop
         vertex -1.832405e+01 1.122595e+01 2.100000e+00
         vertex -1.735703e+01 1.032356e+01 2.100000e+00
         vertex -8.400000e+00 1.200000e+01 2.100000e+00
      endloop
   endfacet
   facet normal 0.000000e+00 -0.000000e+00 1.000000e+00
      outer loop
         vertex -1.735703e+01 1.032356e+01 2.100000e+00
         vertex -1.700000e+01 9.050000e+00 2.100000e+00
         vertex -8.400000e+00 1.200000e+01 2.100000e+00
      endloop
   endfacet
   facet normal 0.000000e+00 0.000000e+00 1.000000e+00
      outer loop
         vertex -1.700000e+01 9.050000e+00 2.100000e+00
         vertex -1.735703e+01 7.776436e+00 2.100000e+00
         vertex -8.400000e+00 1.200000e+01 2.100000e+00
      endloop
   endfacet
   facet normal -0.000000e+00 0.000000e+00 1.000000e+00
      outer loop
         vertex -1.735703e+01 7.776436e+00 2.100000e+00
         vertex -1.832405e+01 6.874053e+00 2.100000e+00
         vertex -1.832405e+01 -6.874053e+00 2.100000e+00
      endloop
   endfacet
   facet normal -0.000000e+00 0.000000e+00 1.000000e+00
      outer loop
         vertex -1.832405e+01 6.874053e+00 2.100000e+00
         vertex -1.961924e+01 6.605852e+00 2.100000e+00
         vertex -1.961924e+01 -6.605852e+00 2.100000e+00
      endloop
   endfacet
   facet normal 0.000000e+00 0.000000e+00 1.000000e+00
      outer loop
         vertex -1.961924e+01 6.605852e+00 2.100000e+00
         vertex -2.086510e+01 7.050000e+00 2.100000e+00
         vertex -2.320000e+01 6.050000e+00 2.100000e+00
      endloop
   endfacet
   facet normal -0.000000e+00 0.000000e+00 1.000000e+00
      outer loop
         vertex -2.086510e+01 7.050000e+00 2.100000e+00
         vertex -2.220000e+01 7.050000e+00 2.100000e+00
         vertex -2.320000e+01 6.050000e+00 2.100000e+00
      endloop
   endfacet
   facet normal -0.000000e+00 0.000000e+00 1.000000e+00
      outer loop
         vertex -2.220000e+01 7.050000e+00 2.100000e+00
         vertex -2.270000e+01 6.916026e+00 2.100000e+00
         vertex -2.320000e+01 6.050000e+00 2.100000e+00
      endloop
   endfacet
   facet normal -0.000000e+00 0.000000e+00 1.000000e+00
      outer loop
         vertex -2.270000e+01 6.916026e+00 2.100000e+00
         vertex -2.306602e+01 6.550000e+00 2.100000e+00
         vertex -2.320000e+01 6.050000e+00 2.100000e+00
      endloop
   endfacet
   facet normal 0.000000e+00 0.000000e+00 1.000000e+00
      outer loop
         vertex -2.320000e+01 6.050000e+00 2.100000e+00
         vertex -2.320000e+01 -6.050000e+00 2.100000e+00
         vertex -1.961924e+01 6.605852e+00 2.100000e+00
      endloop
   endfacet
   facet normal -0.000000e+00 -0.000000e+00 1.000000e+00
      outer loop
         vertex -2.320000e+01 -6.050000e+00 2.100000e+00
         vertex -2.306602e+01 -6.550000e+00 2.100000e+00
         vertex -2.220000e+01 -7.050000e+00 2.100000e+00
      endloop
   endfacet
   facet normal -0.000000e+00 -0.000000e+00 1.000000e+00
      outer loop
         vertex -2.306602e+01 -6.550000e+00 2.100000e+00
         vertex -2.270000e+01 -6.916026e+00 2.100000e+00
         vertex -2.220000e+01 -7.050000e+00 2.100000e+00
      endloop
   endfacet
   facet normal 0.000000e+00 0.000000e+00 1.000000e+00
      outer loop
         vertex -2.220000e+01 -7.050000e+00 2.100000e+00
         vertex -2.086510e+01 -7.050000e+00 2.100000e+00
         vertex -2.320000e+01 -6.050000e+00 2.100000e+00
      endloop
   endfacet
   facet normal 0.000000e+00 0.000000e+00 1.000000e+00
      outer loop
         vertex -2.086510e+01 -7.050000e+00 2.100000e+00
         vertex -1.961924e+01 -6.605852e+00 2.100000e+00
         vertex -2.320000e+01 -6.050000e+00 2.100000e+00
      endloop
   endfacet
   facet normal 0.000000e+00 -0.000000e+00 1.000000e+00
      outer loop
         vertex -1.961924e+01 -6.605852e+00 2.100000e+00
         vertex -1.832405e+01 -6.874053e+00 2.100000e+00
         vertex -1.832405e+01 6.874053e+00 2.100000e+00
      endloop
   endfacet
   facet normal 0.000000e+00 -0.000000e+00 1.000000e+00
      outer loop
         vertex -1.832405e+01 -6.874053e+00 2.100000e+00
         vertex -1.735703e+01 -7.776436e+00 2.100000e+00
         vertex -1.735703e+01 7.776436e+00 2.100000e+00
      endloop
   endfacet
   facet normal -0.000000e+00 -0.000000e+00 1.000000e+00
      outer loop
         vertex -1.735703e+01 -7.776436e+00 2.100000e+00
         vertex -1.700000e+01 -9.050000e+00 2.100000e+00
         vertex -8.400000e+00 -1.200000e+01 2.100000e+00
      endloop
   endfacet
   facet normal -0.000000e+00 0.000000e+00 1.000000e+00
      outer loop
         vertex -1.700000e+01 -9.050000e+00 2.100000e+00
         vertex -1.735703e+01 -1.032356e+01 2.100000e+00
         vertex -8.400000e+00 -1.200000e+01 2.100000e+00
      endloop
   endfacet
   facet normal -0.000000e+00 0.000000e+00 1.000000e+00
      outer loop
         vertex -1.735703e+01 -1.032356e+01 2.100000e+00
         vertex -1.832405e+01 -1.122595e+01 2.100000e+00
         vertex -8.400000e+00 -1.200000e+01 2.100000e+00
      endloop
   endfacet
   facet normal -0.000000e+00 0.000000e+00 1.000000e+00
      outer loop
         vertex -1.832405e+01 -1.122595e+01 2.100000e+00
         vertex -1.961924e+01 -1.149415e+01 2.100000e+00
         vertex -2.320000e+01 -1.620000e+01 2.100000e+00
      endloop
   endfacet
   facet normal 0.000000e+00 0.000000e+00 1.000000e+00
      outer loop
         vertex -1.961924e+01 -1.149415e+01 2.100000e+00
         vertex -2.086510e+01 -1.105000e+01 2.100000e+00
         vertex -2.320000e+01 -1.205000e+01 2.100000e+00
      endloop
   endfacet
   facet normal -0.000000e+00 0.000000e+00 1.000000e+00
      outer loop
         vertex -2.086510e+01 -1.105000e+01 2.100000e+00
         vertex -2.220000e+01 -1.105000e+01 2.100000e+00
         vertex -2.320000e+01 -1.205000e+01 2.100000e+00
      endloop
   endfacet
   facet normal -0.000000e+00 0.000000e+00 1.000000e+00
      outer loop
         vertex -2.220000e+01 -1.105000e+01 2.100000e+00
         vertex -2.270000e+01 -1.118397e+01 2.100000e+00
         vertex -2.306602e+01 -1.155000e+01 2.100000e+00
      endloop
   endfacet
   facet normal 0.000000e+00 -0.000000e+00 1.000000e+00
      outer loop
         vertex 2.200000e+00 1.200000e+01 2.100000e+00
         vertex 6.400000e+00 1.200000e+01 2.100000e+00
         vertex 2.320000e+01 1.620000e+01 2.100000e+00
      endloop
   endfacet
   facet normal 0.000000e+00 -0.000000e+00 1.000000e+00
      outer loop
         vertex 6.400000e+00 1.200000e+01 2.100000e+00
         vertex 8.400000e+00 1.200000e+01 2.100000e+00
         vertex 2.320000e+01 1.620000e+01 2.100000e+00
      endloop
   endfacet
   facet normal 0.000000e+00 0.000000e+00 1.000000e+00
      outer loop
         vertex 8.400000e+00 1.200000e+01 2.100000e+00
         vertex 8.400000e+00 -1.200000e+01 2.100000e+00
         vertex 1.735703e+01 -7.776436e+00 2.100000e+00
      endloop
   endfacet
   facet normal -0.000000e+00 0.000000e+00 1.000000e+00
      outer loop
         vertex 8.400000e+00 -1.200000e+01 2.100000e+00
         vertex 6.400000e+00 -1.200000e+01 2.100000e+00
         vertex 2.320000e+01 -1.620000e+01 2.100000e+00
      endloop
   endfacet
   facet normal -0.000000e+00 0.000000e+00 1.000000e+00
      outer loop
         vertex 6.400000e+00 -1.200000e+01 2.100000e+00
         vertex 2.200000e+00 -1.200000e+01 2.100000e+00
         vertex 2.320000e+01 -1.620000e+01 2.100000e+00
      endloop
   endfacet
   facet normal 0.000000e+00 0.000000e+00 1.000000e+00
      outer loop
         vertex 2.200000e+00 -1.200000e+01 2.100000e+00
         vertex 2.200000e+00 1.200000e+01 2.100000e+00
         vertex -2.200000e+00 1.200000e+01 2.100000e+00
      endloop
   endfacet
   facet normal -0.000000e+00 0.000000e+00 1.000000e+00
      outer loop
         vertex -6.400000e+00 -1.200000e+01 2.100000e+00
         vertex -8.400000e+00 -1.200000e+01 2.100000e+00
         vertex -2.320000e+01 -1.620000e+01 2.100000e+00
      endloop
   endfacet
   facet normal 0.000000e+00 0.000000e+00 1.000000e+00
      outer loop
         vertex -8.400000e+00 -1.200000e+01 2.100000e+00
         vertex -8.400000e+00 1.200000e+01 2.100000e+00
         vertex -1.735703e+01 7.776436e+00 2.100000e+00
      endloop
   endfacet
   facet normal 0.000000e+00 0.000000e+00 1.000000e+00
      outer loop
         vertex -8.400000e+00 1.200000e+01 2.100000e+00
         vertex -6.400000e+00 1.200000e+01 2.100000e+00
         vertex -2.320000e+01 1.620000e+01 2.100000e+00
      endloop
   endfacet
   facet normal 0.000000e+00 0.000000e+00 1.000000e+00
      outer loop
         vertex -6.400000e+00 1.200000e+01 2.100000e+00
         vertex -2.200000e+00 1.200000e+01 2.100000e+00
         vertex -2.320000e+01 1.620000e+01 2.100000e+00
      endloop
   endfacet
   facet normal 0.000000e+00 0.000000e+00 1.000000e+00
      outer loop
         vertex -2.200000e+00 1.200000e+01 2.100000e+00
         vertex -2.200000e+00 -1.200000e+01 2.100000e+00
         vertex 2.200000e+00 -1.200000e+01 2.100000e+00
      endloop
   endfacet
   facet normal -0.000000e+00 0.000000e+00 1.000000e+00
      outer loop
         vertex -2.200000e+00 -1.200000e+01 2.100000e+00
         vertex -6.400000e+00 -1.200000e+01 2.100000e+00
         vertex -2.320000e+01 -1.620000e+01 2.100000e+00
      endloop
   endfacet
   facet normal 0.000000e+00 0.000000e+00 1.000000e+00
      outer loop
         vertex -2.320000e+01 -1.620000e+01 2.100000e+00
         vertex 2.200000e+00 -1.200000e+01 2.100000e+00
         vertex -2.200000e+00 -1.200000e+01 2.100000e+00
      endloop
   endfacet
   facet normal 0.000000e+00 0.000000e+00 1.000000e+00
      outer loop
         vertex 2.320000e+01 -1.620000e+01 2.100000e+00
         vertex 1.832405e+01 -1.122595e+01 2.100000e+00
         vertex 8.400000e+00 -1.200000e+01 2.100000e+00
      endloop
   endfacet
   facet normal 0.000000e+00 0.000000e+00 1.000000e+00
      outer loop
         vertex 1.961924e+01 6.605852e+00 2.100000e+00
         vertex 1.961924e+01 -6.605852e+00 2.100000e+00
         vertex 2.320000e+01 6.050000e+00 2.100000e+00
      endloop
   endfacet
   facet normal 0.000000e+00 0.000000e+00 1.000000e+00
      outer loop
         vertex 1.735703e+01 -7.776436e+00 2.100000e+00
         vertex 1.735703e+01 7.776436e+00 2.100000e+00
         vertex 8.400000e+00 1.200000e+01 2.100000e+00
      endloop
   endfacet
   facet normal 0.000000e+00 -0.000000e+00 1.000000e+00
      outer loop
         vertex 8.400000e+00 1.200000e+01 2.100000e+00
         vertex 1.832405e+01 1.122595e+01 2.100000e+00
         vertex 2.320000e+01 1.620000e+01 2.100000e+00
      endloop
   endfacet
   facet normal 0.000000e+00 0.000000e+00 1.000000e+00
      outer loop
         vertex 2.200000e+00 1.200000e+01 2.100000e+00
         vertex -2.320000e+01 1.620000e+01 2.100000e+00
         vertex -2.200000e+00 1.200000e+01 2.100000e+00
      endloop
   endfacet
   facet normal 0.000000e+00 -0.000000e+00 1.000000e+00
      outer loop
         vertex -2.320000e+01 1.620000e+01 2.100000e+00
         vertex -1.832405e+01 1.122595e+01 2.100000e+00
         vertex -8.400000e+00 1.200000e+01 2.100000e+00
      endloop
   endfacet
   facet normal 0.000000e+00 0.000000e+00 1.000000e+00
      outer loop
         vertex -1.961924e+01 -6.605852e+00 2.100000e+00
         vertex -1.961924e+01 6.605852e+00 2.100000e+00
         vertex -2.320000e+01 -6.050000e+00 2.100000e+00
      endloop
   endfacet
   facet normal -0.000000e+00 0.000000e+00 1.000000e+00
      outer loop
         vertex -1.735703e+01 7.776436e+00 2.100000e+00
         vertex -1.735703e+01 -7.776436e+00 2.100000e+00
         vertex -8.400000e+00 -1.200000e+01 2.100000e+00
      endloop
   endfacet
   facet normal 0.000000e+00 0.000000e+00 1.000000e+00
      outer loop
         vertex -8.400000e+00 -1.200000e+01 2.100000e+00
         vertex -1.832405e+01 -1.122595e+01 2.100000e+00
         vertex -2.320000e+01 -1.620000e+01 2.100000e+00
      endloop
   endfacet
   facet normal -1.000000e+00 0.000000e+00 0.000000e+00
      outer loop
         vertex 3.800000e+00 1.200000e+01 4.200000e+00
         vertex 3.800000e+00 1.200000e+01 3.600000e+00
         vertex 3.800000e+00 -1.200000e+01 3.600000e+00
      endloop
   endfacet
   facet normal -1.000000e+00 0.000000e+00 0.000000e+00
      outer loop
         vertex 3.800000e+00 -1.200000e+01 3.600000e+00
         vertex 3.800000e+00 -1.200000e+01 4.200000e+00
         vertex 3.800000e+00 1.200000e+01 4.200000e+00
      endloop
   endfacet
   facet normal 1.000000e+00 0.000000e+00 0.000000e+00
      outer loop
         vertex -3.800000e+00 -1.200000e+01 4.200000e+00
         vertex -3.800000e+00 -1.200000e+01 3.600000e+00
         vertex -3.800000e+00 1.200000e+01 3.600000e+00
      endloop
   endfacet
   facet normal 1.000000e+00 0.000000e+00 0.000000e+00
      outer loop
         vertex -3.800000e+00 1.200000e+01 3.600000e+00
         vertex -3.800000e+00 1.200000e+01 4.200000e+00
         vertex -3.800000e+00 -1.200000e+01 4.200000e+00
      endloop
   endfacet
   facet normal 0.000000e+00 1.000000e+00 0.000000e+00
      outer loop
         vertex 8.400000e+00 1.200000e+01 2.100000e+00
         vertex 6.400000e+00 1.200000e+01 2.100000e+00
         vertex 8.400000e+00 1.200000e+01 4.200000e+00
      endloop
   endfacet
   facet normal -0.000000e+00 1.000000e+00 0.000000e+00
      outer loop
         vertex 6.400000e+00 1.200000e+01 2.100000e+00
         vertex 3.800000e+00 1.200000e+01 3.600000e+00
         vertex 3.800000e+00 1.200000e+01 4.200000e+00
      endloop
   endfacet
   facet normal 0.000000e+00 1.000000e+00 0.000000e+00
      outer loop
         vertex 3.800000e+00 1.200000e+01 4.200000e+00
         vertex 8.400000e+00 1.200000e+01 4.200000e+00
         vertex 6.400000e+00 1.200000e+01 2.100000e+00
      endloop
   endfacet
   facet normal 0.000000e+00 -1.000000e+00 0.000000e+00
      outer loop
         vertex 3.800000e+00 -1.200000e+01 4.200000e+00
         vertex 3.800000e+00 -1.200000e+01 3.600000e+00
         vertex 6.400000e+00 -1.200000e+01 2.100000e+00
      endloop
   endfacet
   facet normal 0.000000e+00 -1.000000e+00 0.000000e+00
      outer loop
         vertex 6.400000e+00 -1.200000e+01 2.100000e+00
         vertex 8.400000e+00 -1.200000e+01 2.100000e+00
         vertex 8.400000e+00 -1.200000e+01 4.200000e+00
      endloop
   endfacet
   facet normal 0.000000e+00 -1.000000e+00 0.000000e+00
      outer loop
         vertex 8.400000e+00 -1.200000e+01 4.200000e+00
         vertex 3.800000e+00 -1.200000e+01 4.200000e+00
         vertex 6.400000e+00 -1.200000e+01 2.100000e+00
      endloop
   endfacet
   facet normal 0.000000e+00 -1.000000e+00 0.000000e+00
      outer loop
         vertex -8.400000e+00 -1.200000e+01 2.100000e+00
         vertex -6.400000e+00 -1.200000e+01 2.100000e+00
         vertex -8.400000e+00 -1.200000e+01 4.200000e+00
      endloop
   endfacet
   facet normal -0.000000e+00 -1.000000e+00 0.000000e+00
      outer loop
         vertex -6.400000e+00 -1.200000e+01 2.100000e+00
         vertex -3.800000e+00 -1.200000e+01 3.600000e+00
         vertex -3.800000e+00 -1.200000e+01 4.200000e+00
      endloop
   endfacet
   facet normal 0.000000e+00 -1.000000e+00 0.000000e+00
      outer loop
         vertex -3.800000e+00 -1.200000e+01 4.200000e+00
         vertex -8.400000e+00 -1.200000e+01 4.200000e+00
         vertex -6.400000e+00 -1.200000e+01 2.100000e+00
      endloop
   endfacet
   facet normal 0.000000e+00 1.000000e+00 -0.000000e+00
      outer loop
         vertex -3.800000e+00 1.200000e+01 4.200000e+00
         vertex -3.800000e+00 1.200000e+01 3.600000e+00
         vertex -6.400000e+00 1.200000e+01 2.100000e+00
      endloop
   endfacet
   facet normal 0.000000e+00 1.000000e+00 0.000000e+00
      outer loop
         vertex -6.400000e+00 1.200000e+01 2.100000e+00
         vertex -8.400000e+00 1.200000e+01 2.100000e+00
         vertex -8.400000e+00 1.200000e+01 4.200000e+00
      endloop
   endfacet
   facet normal 0.000000e+00 1.000000e+00 0.000000e+00
      outer loop
         vertex -8.400000e+00 1.200000e+01 4.200000e+00
         vertex -3.800000e+00 1.200000e+01 4.200000e+00
         vertex -6.400000e+00 1.200000e+01 2.100000e+00
      endloop
   endfacet
   facet normal 1.000000e+00 0.000000e+00 -0.000000e+00
      outer loop
         vertex -6.400000e+00 -1.200000e+01 0.000000e+00
         vertex -6.400000e+00 1.200000e+01 0.000000e+00
         vertex -6.400000e+00 1.200000e+01 2.100000e+00
      endloop
   endfacet
   facet normal 1.000000e+00 -0.000000e+00 0.000000e+00
      outer loop
         vertex -6.400000e+00 1.200000e+01 2.100000e+00
         vertex -6.400000e+00 -1.200000e+01 2.100000e+00
         vertex -6.400000e+00 -1.200000e+01 0.000000e+00
      endloop
   endfacet
   facet normal -1.000000e+00 0.000000e+00 0.000000e+00
      outer loop
         vertex 6.400000e+00 1.200000e+01 0.000000e+00
         vertex 6.400000e+00 -1.200000e+01 0.000000e+00
         vertex 6.400000e+00 -1.200000e+01 2.100000e+00
      endloop
   endfacet
   facet normal -1.000000e+00 -0.000000e+00 -0.000000e+00
      outer loop
         vertex 6.400000e+00 -1.200000e+01 2.100000e+00
         vertex 6.400000e+00 1.200000e+01 2.100000e+00
         vertex 6.400000e+00 1.200000e+01 0.000000e+00
      endloop
   endfacet
   facet normal -4.997224e-01 -0.000000e+00 -8.661856e-01
      outer loop
         vertex 3.800000e+00 -1.200000e+01 3.600000e+00
         vertex 3.800000e+00 1.200000e+01 3.600000e+00
         vertex 6.400000e+00 1.200000e+01 2.100000e+00
      endloop
   endfacet
   facet normal -4.997224e-01 0.000000e+00 -8.661856e-01
      outer loop
         vertex 6.400000e+00 1.200000e+01 2.100000e+00
         vertex 6.400000e+00 -1.200000e+01 2.100000e+00
         vertex 3.800000e+00 -1.200000e+01 3.600000e+00
      endloop
   endfacet
   facet normal 4.997224e-01 0.000000e+00 -8.661856e-01
      outer loop
         vertex -3.800000e+00 1.200000e+01 3.600000e+00
         vertex -3.800000e+00 -1.200000e+01 3.600000e+00
         vertex -6.400000e+00 -1.200000e+01 2.100000e+00
      endloop
   endfacet
   facet normal 4.997224e-01 0.000000e+00 -8.661856e-01
      outer loop
         vertex -6.400000e+00 -1.200000e+01 2.100000e+00
         vertex -6.400000e+00 1.200000e+01 2.100000e+00
         vertex -3.800000e+00 1.200000e+01 3.600000e+00
      endloop
   endfacet
   facet normal -1.000000e+00 0.000000e+00 0.000000e+00
      outer loop
         vertex -2.320000e+01 -1.205000e+01 2.100000e+00
         vertex -2.320000e+01 -1.205000e+01 0.000000e+00
         vertex -2.320000e+01 -1.620000e+01 0.000000e+00
      endloop
   endfacet
   facet normal -1.000000e+00 0.000000e+00 0.000000e+00
      outer loop
         vertex -2.320000e+01 -1.620000e+01 0.000000e+00
         vertex -2.320000e+01 -1.620000e+01 2.100000e+00
         vertex -2.320000e+01 -1.205000e+01 2.100000e+00
      endloop
   endfacet
   facet normal 0.000000e+00 -1.000000e+00 0.000000e+00
      outer loop
         vertex -2.320000e+01 -1.620000e+01 2.100000e+00
         vertex -2.320000e+01 -1.620000e+01 0.000000e+00
         vertex 2.320000e+01 -1.620000e+01 0.000000e+00
      endloop
   endfacet
   facet normal -0.000000e+00 -1.000000e+00 -0.000000e+00
      outer loop
         vertex 2.320000e+01 -1.620000e+01 0.000000e+00
         vertex 2.320000e+01 -1.620000e+01 2.100000e+00
         vertex -2.320000e+01 -1.620000e+01 2.100000e+00
      endloop
   endfacet
   facet normal 1.000000e+00 0.000000e+00 0.000000e+00
      outer loop
         vertex 2.320000e+01 -1.620000e+01 2.100000e+00
         vertex 2.320000e+01 -1.620000e+01 0.000000e+00
         vertex 2.320000e+01 -1.205000e+01 0.000000e+00
      endloop
   endfacet
   facet normal 1.000000e+00 0.000000e+00 0.000000e+00
      outer loop
         vertex 2.320000e+01 -1.205000e+01 0.000000e+00
         vertex 2.320000e+01 -1.205000e+01 2.100000e+00
         vertex 2.320000e+01 -1.620000e+01 2.100000e+00
      endloop
   endfacet
   facet normal 9.659252e-01 2.588215e-01 -0.000000e+00
      outer loop
         vertex 2.320000e+01 -1.205000e+01 0.000000e+00
         vertex 2.306602e+01 -1.155000e+01 0.000000e+00
         vertex 2.306602e+01 -1.155000e+01 2.100000e+00
      endloop
   endfacet
   facet normal 9.659252e-01 2.588215e-01 0.000000e+00
      outer loop
         vertex 2.320000e+01 -1.205000e+01 0.000000e+00
         vertex 2.306602e+01 -1.155000e+01 2.100000e+00
         vertex 2.320000e+01 -1.205000e+01 2.100000e+00
      endloop
   endfacet
   facet normal 7.071086e-01 7.071049e-01 -0.000000e+00
      outer loop
         vertex 2.306602e+01 -1.155000e+01 0.000000e+00
         vertex 2.270000e+01 -1.118397e+01 0.000000e+00
         vertex 2.270000e+01 -1.118397e+01 2.100000e+00
      endloop
   endfacet
   facet normal 7.071086e-01 7.071049e-01 0.000000e+00
      outer loop
         vertex 2.306602e+01 -1.155000e+01 0.000000e+00
         vertex 2.270000e+01 -1.118397e+01 2.100000e+00
         vertex 2.306602e+01 -1.155000e+01 2.100000e+00
      endloop
   endfacet
   facet normal 2.588181e-01 9.659261e-01 -0.000000e+00
      outer loop
         vertex 2.270000e+01 -1.118397e+01 0.000000e+00
         vertex 2.220000e+01 -1.105000e+01 0.000000e+00
         vertex 2.220000e+01 -1.105000e+01 2.100000e+00
      endloop
   endfacet
   facet normal 2.588181e-01 9.659261e-01 0.000000e+00
      outer loop
         vertex 2.270000e+01 -1.118397e+01 0.000000e+00
         vertex 2.220000e+01 -1.105000e+01 2.100000e+00
         vertex 2.270000e+01 -1.118397e+01 2.100000e+00
      endloop
   endfacet
   facet normal 0.000000e+00 1.000000e+00 -0.000000e+00
      outer loop
         vertex 2.220000e+01 -1.105000e+01 2.100000e+00
         vertex 2.220000e+01 -1.105000e+01 0.000000e+00
         vertex 2.086510e+01 -1.105000e+01 0.000000e+00
      endloop
   endfacet
   facet normal -0.000000e+00 1.000000e+00 0.000000e+00
      outer loop
         vertex 2.086510e+01 -1.105000e+01 0.000000e+00
         vertex 2.086510e+01 -1.105000e+01 2.100000e+00
         vertex 2.220000e+01 -1.105000e+01 2.100000e+00
      endloop
   endfacet
   facet normal -3.357988e-01 9.419337e-01 0.000000e+00
      outer loop
         vertex 2.086510e+01 -1.105000e+01 0.000000e+00
         vertex 1.961924e+01 -1.149415e+01 0.000000e+00
         vertex 1.961924e+01 -1.149415e+01 2.100000e+00
      endloop
   endfacet
   facet normal -3.357988e-01 9.419337e-01 0.000000e+00
      outer loop
         vertex 2.086510e+01 -1.105000e+01 0.000000e+00
         vertex 1.961924e+01 -1.149415e+01 2.100000e+00
         vertex 2.086510e+01 -1.105000e+01 2.100000e+00
      endloop
   endfacet
   facet normal 2.027742e-01 9.792255e-01 -0.000000e+00
      outer loop
         vertex 1.961924e+01 -1.149415e+01 0.000000e+00
         vertex 1.832405e+01 -1.122595e+01 0.000000e+00
         vertex 1.832405e+01 -1.122595e+01 2.100000e+00
      endloop
   endfacet
   facet normal 2.027742e-01 9.792255e-01 0.000000e+00
      outer loop
         vertex 1.961924e+01 -1.149415e+01 0.000000e+00
         vertex 1.832405e+01 -1.122595e+01 2.100000e+00
         vertex 1.961924e+01 -1.149415e+01 2.100000e+00
      endloop
   endfacet
   facet normal 6.822477e-01 7.311211e-01 -0.000000e+00
      outer loop
         vertex 1.832405e+01 -1.122595e+01 0.000000e+00
         vertex 1.735703e+01 -1.032356e+01 0.000000e+00
         vertex 1.735703e+01 -1.032356e+01 2.100000e+00
      endloop
   endfacet
   facet normal 6.822477e-01 7.311211e-01 0.000000e+00
      outer loop
         vertex 1.832405e+01 -1.122595e+01 0.000000e+00
         vertex 1.735703e+01 -1.032356e+01 2.100000e+00
         vertex 1.832405e+01 -1.122595e+01 2.100000e+00
      endloop
   endfacet
   facet normal 9.628797e-01 2.699309e-01 -0.000000e+00
      outer loop
         vertex 1.735703e+01 -1.032356e+01 0.000000e+00
         vertex 1.700000e+01 -9.050000e+00 0.000000e+00
         vertex 1.700000e+01 -9.050000e+00 2.100000e+00
      endloop
   endfacet
   facet normal 9.628797e-01 2.699309e-01 0.000000e+00
      outer loop
         vertex 1.735703e+01 -1.032356e+01 0.000000e+00
         vertex 1.700000e+01 -9.050000e+00 2.100000e+00
         vertex 1.735703e+01 -1.032356e+01 2.100000e+00
      endloop
   endfacet
   facet normal 9.628798e-01 -2.699307e-01 0.000000e+00
      outer loop
         vertex 1.700000e+01 -9.050000e+00 0.000000e+00
         vertex 1.735703e+01 -7.776436e+00 0.000000e+00
         vertex 1.735703e+01 -7.776436e+00 2.100000e+00
      endloop
   endfacet
   facet normal 9.628798e-01 -2.699307e-01 0.000000e+00
      outer loop
         vertex 1.700000e+01 -9.050000e+00 0.000000e+00
         vertex 1.735703e+01 -7.776436e+00 2.100000e+00
         vertex 1.700000e+01 -9.050000e+00 2.100000e+00
      endloop
   endfacet
   facet normal 6.822475e-01 -7.311213e-01 0.000000e+00
      outer loop
         vertex 1.735703e+01 -7.776436e+00 0.000000e+00
         vertex 1.832405e+01 -6.874053e+00 0.000000e+00
         vertex 1.832405e+01 -6.874053e+00 2.100000e+00
      endloop
   endfacet
   facet normal 6.822475e-01 -7.311213e-01 0.000000e+00
      outer loop
         vertex 1.735703e+01 -7.776436e+00 0.000000e+00
         vertex 1.832405e+01 -6.874053e+00 2.100000e+00
         vertex 1.735703e+01 -7.776436e+00 2.100000e+00
      endloop
   endfacet
   facet normal 2.027738e-01 -9.792256e-01 0.000000e+00
      outer loop
         vertex 1.832405e+01 -6.874053e+00 0.000000e+00
         vertex 1.961924e+01 -6.605852e+00 0.000000e+00
         vertex 1.961924e+01 -6.605852e+00 2.100000e+00
      endloop
   endfacet
   facet normal 2.027738e-01 -9.792256e-01 0.000000e+00
      outer loop
         vertex 1.832405e+01 -6.874053e+00 0.000000e+00
         vertex 1.961924e+01 -6.605852e+00 2.100000e+00
         vertex 1.832405e+01 -6.874053e+00 2.100000e+00
      endloop
   endfacet
   facet normal -3.357988e-01 -9.419337e-01 0.000000e+00
      outer loop
         vertex 1.961924e+01 -6.605852e+00 0.000000e+00
         vertex 2.086510e+01 -7.050000e+00 0.000000e+00
         vertex 2.086510e+01 -7.050000e+00 2.100000e+00
      endloop
   endfacet
   facet normal -3.357988e-01 -9.419337e-01 0.000000e+00
      outer loop
         vertex 1.961924e+01 -6.605852e+00 0.000000e+00
         vertex 2.086510e+01 -7.050000e+00 2.100000e+00
         vertex 1.961924e+01 -6.605852e+00 2.100000e+00
      endloop
   endfacet
   facet normal 0.000000e+00 -1.000000e+00 0.000000e+00
      outer loop
         vertex 2.086510e+01 -7.050000e+00 2.100000e+00
         vertex 2.086510e+01 -7.050000e+00 0.000000e+00
         vertex 2.220000e+01 -7.050000e+00 0.000000e+00
      endloop
   endfacet
   facet normal -0.000000e+00 -1.000000e+00 -0.000000e+00
      outer loop
         vertex 2.220000e+01 -7.050000e+00 0.000000e+00
         vertex 2.220000e+01 -7.050000e+00 2.100000e+00
         vertex 2.086510e+01 -7.050000e+00 2.100000e+00
      endloop
   endfacet
   facet normal 2.588190e-01 -9.659258e-01 0.000000e+00
      outer loop
         vertex 2.220000e+01 -7.050000e+00 0.000000e+00
         vertex 2.270000e+01 -6.916026e+00 0.000000e+00
         vertex 2.270000e+01 -6.916026e+00 2.100000e+00
      endloop
   endfacet
   facet normal 2.588190e-01 -9.659258e-01 0.000000e+00
      outer loop
         vertex 2.220000e+01 -7.050000e+00 0.000000e+00
         vertex 2.270000e+01 -6.916026e+00 2.100000e+00
         vertex 2.220000e+01 -7.050000e+00 2.100000e+00
      endloop
   endfacet
   facet normal 7.071082e-01 -7.071054e-01 0.000000e+00
      outer loop
         vertex 2.270000e+01 -6.916026e+00 0.000000e+00
         vertex 2.306602e+01 -6.550000e+00 0.000000e+00
         vertex 2.306602e+01 -6.550000e+00 2.100000e+00
      endloop
   endfacet
   facet normal 7.071082e-01 -7.071054e-01 0.000000e+00
      outer loop
         vertex 2.270000e+01 -6.916026e+00 0.000000e+00
         vertex 2.306602e+01 -6.550000e+00 2.100000e+00
         vertex 2.270000e+01 -6.916026e+00 2.100000e+00
      endloop
   endfacet
   facet normal 9.659252e-01 -2.588215e-01 0.000000e+00
      outer loop
         vertex 2.306602e+01 -6.550000e+00 0.000000e+00
         vertex 2.320000e+01 -6.050000e+00 0.000000e+00
         vertex 2.320000e+01 -6.050000e+00 2.100000e+00
      endloop
   endfacet
   facet normal 9.659252e-01 -2.588215e-01 0.000000e+00
      outer loop
         vertex 2.306602e+01 -6.550000e+00 0.000000e+00
         vertex 2.320000e+01 -6.050000e+00 2.100000e+00
         vertex 2.306602e+01 -6.550000e+00 2.100000e+00
      endloop
   endfacet
   facet normal 1.000000e+00 0.000000e+00 0.000000e+00
      outer loop
         vertex 2.320000e+01 -6.050000e+00 2.100000e+00
         vertex 2.320000e+01 -6.050000e+00 0.000000e+00
         vertex 2.320000e+01 6.050000e+00 0.000000e+00
      endloop
   endfacet
   facet normal 1.000000e+00 0.000000e+00 0.000000e+00
      outer loop
         vertex 2.320000e+01 6.050000e+00 0.000000e+00
         vertex 2.320000e+01 6.050000e+00 2.100000e+00
         vertex 2.320000e+01 -6.050000e+00 2.100000e+00
      endloop
   endfacet
   facet normal 9.659252e-01 2.588215e-01 -0.000000e+00
      outer loop
         vertex 2.320000e+01 6.050000e+00 0.000000e+00
         vertex 2.306602e+01 6.550000e+00 0.000000e+00
         vertex 2.306602e+01 6.550000e+00 2.100000e+00
      endloop
   endfacet
   facet normal 9.659252e-01 2.588215e-01 0.000000e+00
      outer loop
         vertex 2.320000e+01 6.050000e+00 0.000000e+00
         vertex 2.306602e+01 6.550000e+00 2.100000e+00
         vertex 2.320000e+01 6.050000e+00 2.100000e+00
      endloop
   endfacet
   facet normal 7.071082e-01 7.071054e-01 -0.000000e+00
      outer loop
         vertex 2.306602e+01 6.550000e+00 0.000000e+00
         vertex 2.270000e+01 6.916026e+00 0.000000e+00
         vertex 2.270000e+01 6.916026e+00 2.100000e+00
      endloop
   endfacet
   facet normal 7.071082e-01 7.071054e-01 0.000000e+00
      outer loop
         vertex 2.306602e+01 6.550000e+00 0.000000e+00
         vertex 2.270000e+01 6.916026e+00 2.100000e+00
         vertex 2.306602e+01 6.550000e+00 2.100000e+00
      endloop
   endfacet
   facet normal 2.588190e-01 9.659258e-01 -0.000000e+00
      outer loop
         vertex 2.270000e+01 6.916026e+00 0.000000e+00
         vertex 2.220000e+01 7.050000e+00 0.000000e+00
         vertex 2.220000e+01 7.050000e+00 2.100000e+00
      endloop
   endfacet
   facet normal 2.588190e-01 9.659258e-01 0.000000e+00
      outer loop
         vertex 2.270000e+01 6.916026e+00 0.000000e+00
         vertex 2.220000e+01 7.050000e+00 2.100000e+00
         vertex 2.270000e+01 6.916026e+00 2.100000e+00
      endloop
   endfacet
   facet normal 0.000000e+00 1.000000e+00 -0.000000e+00
      outer loop
         vertex 2.220000e+01 7.050000e+00 2.100000e+00
         vertex 2.220000e+01 7.050000e+00 0.000000e+00
         vertex 2.086510e+01 7.050000e+00 0.000000e+00
      endloop
   endfacet
   facet normal -0.000000e+00 1.000000e+00 0.000000e+00
      outer loop
         vertex 2.086510e+01 7.050000e+00 0.000000e+00
         vertex 2.086510e+01 7.050000e+00 2.100000e+00
         vertex 2.220000e+01 7.050000e+00 2.100000e+00
      endloop
   endfacet
   facet normal -3.357988e-01 9.419337e-01 0.000000e+00
      outer loop
         vertex 2.086510e+01 7.050000e+00 0.000000e+00
         vertex 1.961924e+01 6.605852e+00 0.000000e+00
         vertex 1.961924e+01 6.605852e+00 2.100000e+00
      endloop
   endfacet
   facet normal -3.357988e-01 9.419337e-01 0.000000e+00
      outer loop
         vertex 2.086510e+01 7.050000e+00 0.000000e+00
         vertex 1.961924e+01 6.605852e+00 2.100000e+00
         vertex 2.086510e+01 7.050000e+00 2.100000e+00
      endloop
   endfacet
   facet normal 2.027738e-01 9.792256e-01 -0.000000e+00
      outer loop
         vertex 1.961924e+01 6.605852e+00 0.000000e+00
         vertex 1.832405e+01 6.874053e+00 0.000000e+00
         vertex 1.832405e+01 6.874053e+00 2.100000e+00
      endloop
   endfacet
   facet normal 2.027738e-01 9.792256e-01 0.000000e+00
      outer loop
         vertex 1.961924e+01 6.605852e+00 0.000000e+00
         vertex 1.832405e+01 6.874053e+00 2.100000e+00
         vertex 1.961924e+01 6.605852e+00 2.100000e+00
      endloop
   endfacet
   facet normal 6.822475e-01 7.311213e-01 -0.000000e+00
      outer loop
         vertex 1.832405e+01 6.874053e+00 0.000000e+00
         vertex 1.735703e+01 7.776436e+00 0.000000e+00
         vertex 1.735703e+01 7.776436e+00 2.100000e+00
      endloop
   endfacet
   facet normal 6.822475e-01 7.311213e-01 0.000000e+00
      outer loop
         vertex 1.832405e+01 6.874053e+00 0.000000e+00
         vertex 1.735703e+01 7.776436e+00 2.100000e+00
         vertex 1.832405e+01 6.874053e+00 2.100000e+00
      endloop
   endfacet
   facet normal 9.628798e-01 2.699307e-01 -0.000000e+00
      outer loop
         vertex 1.735703e+01 7.776436e+00 0.000000e+00
         vertex 1.700000e+01 9.050000e+00 0.000000e+00
         vertex 1.700000e+01 9.050000e+00 2.100000e+00
      endloop
   endfacet
   facet normal 9.628798e-01 2.699307e-01 0.000000e+00
      outer loop
         vertex 1.735703e+01 7.776436e+00 0.000000e+00
         vertex 1.700000e+01 9.050000e+00 2.100000e+00
         vertex 1.735703e+01 7.776436e+00 2.100000e+00
      endloop
   endfacet
   facet normal 9.628797e-01 -2.699309e-01 0.000000e+00
      outer loop
         vertex 1.700000e+01 9.050000e+00 0.000000e+00
         vertex 1.735703e+01 1.032356e+01 0.000000e+00
         vertex 1.735703e+01 1.032356e+01 2.100000e+00
      endloop
   endfacet
   facet normal 9.628797e-01 -2.699309e-01 0.000000e+00
      outer loop
         vertex 1.700000e+01 9.050000e+00 0.000000e+00
         vertex 1.735703e+01 1.032356e+01 2.100000e+00
         vertex 1.700000e+01 9.050000e+00 2.100000e+00
      endloop
   endfacet
   facet normal 6.822477e-01 -7.311211e-01 0.000000e+00
      outer loop
         vertex 1.735703e+01 1.032356e+01 0.000000e+00
         vertex 1.832405e+01 1.122595e+01 0.000000e+00
         vertex 1.832405e+01 1.122595e+01 2.100000e+00
      endloop
   endfacet
   facet normal 6.822477e-01 -7.311211e-01 0.000000e+00
      outer loop
         vertex 1.735703e+01 1.032356e+01 0.000000e+00
         vertex 1.832405e+01 1.122595e+01 2.100000e+00
         vertex 1.735703e+01 1.032356e+01 2.100000e+00
      endloop
   endfacet
   facet normal 2.027742e-01 -9.792255e-01 0.000000e+00
      outer loop
         vertex 1.832405e+01 1.122595e+01 0.000000e+00
         vertex 1.961924e+01 1.149415e+01 0.000000e+00
         vertex 1.961924e+01 1.149415e+01 2.100000e+00
      endloop
   endfacet
   facet normal 2.027742e-01 -9.792255e-01 0.000000e+00
      outer loop
         vertex 1.832405e+01 1.122595e+01 0.000000e+00
         vertex 1.961924e+01 1.149415e+01 2.100000e+00
         vertex 1.832405e+01 1.122595e+01 2.100000e+00
      endloop
   endfacet
   facet normal -3.357988e-01 -9.419337e-01 0.000000e+00
      outer loop
         vertex 1.961924e+01 1.149415e+01 0.000000e+00
         vertex 2.086510e+01 1.105000e+01 0.000000e+00
         vertex 2.086510e+01 1.105000e+01 2.100000e+00
      endloop
   endfacet
   facet normal -3.357988e-01 -9.419337e-01 0.000000e+00
      outer loop
         vertex 1.961924e+01 1.149415e+01 0.000000e+00
         vertex 2.086510e+01 1.105000e+01 2.100000e+00
         vertex 1.961924e+01 1.149415e+01 2.100000e+00
      endloop
   endfacet
   facet normal 0.000000e+00 -1.000000e+00 0.000000e+00
      outer loop
         vertex 2.086510e+01 1.105000e+01 2.100000e+00
         vertex 2.086510e+01 1.105000e+01 0.000000e+00
         vertex 2.220000e+01 1.105000e+01 0.000000e+00
      endloop
   endfacet
   facet normal -0.000000e+00 -1.000000e+00 -0.000000e+00
      outer loop
         vertex 2.220000e+01 1.105000e+01 0.000000e+00
         vertex 2.220000e+01 1.105000e+01 2.100000e+00
         vertex 2.086510e+01 1.105000e+01 2.100000e+00
      endloop
   endfacet
   facet normal 2.588181e-01 -9.659261e-01 0.000000e+00
      outer loop
         vertex 2.220000e+01 1.105000e+01 0.000000e+00
         vertex 2.270000e+01 1.118397e+01 0.000000e+00
         vertex 2.270000e+01 1.118397e+01 2.100000e+00
      endloop
   endfacet
   facet normal 2.588181e-01 -9.659261e-01 0.000000e+00
      outer loop
         vertex 2.220000e+01 1.105000e+01 0.000000e+00
         vertex 2.270000e+01 1.118397e+01 2.100000e+00
         vertex 2.220000e+01 1.105000e+01 2.100000e+00
      endloop
   endfacet
   facet normal 7.071086e-01 -7.071049e-01 0.000000e+00
      outer loop
         vertex 2.270000e+01 1.118397e+01 0.000000e+00
         vertex 2.306602e+01 1.155000e+01 0.000000e+00
         vertex 2.306602e+01 1.155000e+01 2.100000e+00
      endloop
   endfacet
   facet normal 7.071086e-01 -7.071049e-01 0.000000e+00
      outer loop
         vertex 2.270000e+01 1.118397e+01 0.000000e+00
         vertex 2.306602e+01 1.155000e+01 2.100000e+00
         vertex 2.270000e+01 1.118397e+01 2.100000e+00
      endloop
   endfacet
   facet normal 9.659252e-01 -2.588215e-01 0.000000e+00
      outer loop
         vertex 2.306602e+01 1.155000e+01 0.000000e+00
         vertex 2.320000e+01 1.205000e+01 0.000000e+00
         vertex 2.320000e+01 1.205000e+01 2.100000e+00
      endloop
   endfacet
   facet normal 9.659252e-01 -2.588215e-01 0.000000e+00
      outer loop
         vertex 2.306602e+01 1.155000e+01 0.000000e+00
         vertex 2.320000e+01 1.205000e+01 2.100000e+00
         vertex 2.306602e+01 1.155000e+01 2.100000e+00
      endloop
   endfacet
   facet normal 1.000000e+00 0.000000e+00 0.000000e+00
      outer loop
         vertex 2.320000e+01 1.205000e+01 2.100000e+00
         vertex 2.320000e+01 1.205000e+01 0.000000e+00
         vertex 2.320000e+01 1.620000e+01 0.000000e+00
      endloop
   endfacet
   facet normal 1.000000e+00 0.000000e+00 0.000000e+00
      outer loop
         vertex 2.320000e+01 1.620000e+01 0.000000e+00
         vertex 2.320000e+01 1.620000e+01 2.100000e+00
         vertex 2.320000e+01 1.205000e+01 2.100000e+00
      endloop
   endfacet
   facet normal 0.000000e+00 1.000000e+00 -0.000000e+00
      outer loop
         vertex 2.320000e+01 1.620000e+01 2.100000e+00
         vertex 2.320000e+01 1.620000e+01 0.000000e+00
         vertex -2.320000e+01 1.620000e+01 0.000000e+00
      endloop
   endfacet
   facet normal -0.000000e+00 1.000000e+00 0.000000e+00
      outer loop
         vertex -2.320000e+01 1.620000e+01 0.000000e+00
         vertex -2.320000e+01 1.620000e+01 2.100000e+00
         vertex 2.320000e+01 1.620000e+01 2.100000e+00
      endloop
   endfacet
   facet normal -1.000000e+00 0.000000e+00 0.000000e+00
      outer loop
         vertex -2.320000e+01 1.620000e+01 2.100000e+00
         vertex -2.320000e+01 1.620000e+01 0.000000e+00
         vertex -2.320000e+01 1.205000e+01 0.000000e+00
      endloop
   endfacet
   facet normal -1.000000e+00 0.000000e+00 0.000000e+00
      outer loop
         vertex -2.320000e+01 1.205000e+01 0.000000e+00
         vertex -2.320000e+01 1.205000e+01 2.100000e+00
         vertex -2.320000e+01 1.620000e+01 2.100000e+00
      endloop
   endfacet
   facet normal -9.659252e-01 -2.588215e-01 0.000000e+00
      outer loop
         vertex -2.320000e+01 1.205000e+01 0.000000e+00
         vertex -2.306602e+01 1.155000e+01 0.000000e+00
         vertex -2.306602e+01 1.155000e+01 2.100000e+00
      endloop
   endfacet
   facet normal -9.659252e-01 -2.588215e-01 0.000000e+00
      outer loop
         vertex -2.320000e+01 1.205000e+01 0.000000e+00
         vertex -2.306602e+01 1.155000e+01 2.100000e+00
         vertex -2.320000e+01 1.205000e+01 2.100000e+00
      endloop
   endfacet
   facet normal -7.071086e-01 -7.071049e-01 0.000000e+00
      outer loop
         vertex -2.306602e+01 1.155000e+01 0.000000e+00
         vertex -2.270000e+01 1.118397e+01 0.000000e+00
         vertex -2.270000e+01 1.118397e+01 2.100000e+00
      endloop
   endfacet
   facet normal -7.071086e-01 -7.071049e-01 0.000000e+00
      outer loop
         vertex -2.306602e+01 1.155000e+01 0.000000e+00
         vertex -2.270000e+01 1.118397e+01 2.100000e+00
         vertex -2.306602e+01 1.155000e+01 2.100000e+00
      endloop
   endfacet
   facet normal -2.588181e-01 -9.659261e-01 0.000000e+00
      outer loop
         vertex -2.270000e+01 1.118397e+01 0.000000e+00
         vertex -2.220000e+01 1.105000e+01 0.000000e+00
         vertex -2.220000e+01 1.105000e+01 2.100000e+00
      endloop
   endfacet
   facet normal -2.588181e-01 -9.659261e-01 0.000000e+00
      outer loop
         vertex -2.270000e+01 1.118397e+01 0.000000e+00
         vertex -2.220000e+01 1.105000e+01 2.100000e+00
         vertex -2.270000e+01 1.118397e+01 2.100000e+00
      endloop
   endfacet
   facet normal 0.000000e+00 -1.000000e+00 0.000000e+00
      outer loop
         vertex -2.220000e+01 1.105000e+01 2.100000e+00
         vertex -2.220000e+01 1.105000e+01 0.000000e+00
         vertex -2.086510e+01 1.105000e+01 0.000000e+00
      endloop
   endfacet
   facet normal -0.000000e+00 -1.000000e+00 -0.000000e+00
      outer loop
         vertex -2.086510e+01 1.105000e+01 0.000000e+00
         vertex -2.086510e+01 1.105000e+01 2.100000e+00
         vertex -2.220000e+01 1.105000e+01 2.100000e+00
      endloop
   endfacet
   facet normal 3.357988e-01 -9.419337e-01 0.000000e+00
      outer loop
         vertex -2.086510e+01 1.105000e+01 0.000000e+00
         vertex -1.961924e+01 1.149415e+01 0.000000e+00
         vertex -1.961924e+01 1.149415e+01 2.100000e+00
      endloop
   endfacet
   facet normal 3.357988e-01 -9.419337e-01 0.000000e+00
      outer loop
         vertex -2.086510e+01 1.105000e+01 0.000000e+00
         vertex -1.961924e+01 1.149415e+01 2.100000e+00
         vertex -2.086510e+01 1.105000e+01 2.100000e+00
      endloop
   endfacet
   facet normal -2.027742e-01 -9.792255e-01 0.000000e+00
      outer loop
         vertex -1.961924e+01 1.149415e+01 0.000000e+00
         vertex -1.832405e+01 1.122595e+01 0.000000e+00
         vertex -1.832405e+01 1.122595e+01 2.100000e+00
      endloop
   endfacet
   facet normal -2.027742e-01 -9.792255e-01 0.000000e+00
      outer loop
         vertex -1.961924e+01 1.149415e+01 0.000000e+00
         vertex -1.832405e+01 1.122595e+01 2.100000e+00
         vertex -1.961924e+01 1.149415e+01 2.100000e+00
      endloop
   endfacet
   facet normal -6.822477e-01 -7.311211e-01 0.000000e+00
      outer loop
         vertex -1.832405e+01 1.122595e+01 0.000000e+00
         vertex -1.735703e+01 1.032356e+01 0.000000e+00
         vertex -1.735703e+01 1.032356e+01 2.100000e+00
      endloop
   endfacet
   facet normal -6.822477e-01 -7.311211e-01 0.000000e+00
      outer loop
         vertex -1.832405e+01 1.122595e+01 0.000000e+00
         vertex -1.735703e+01 1.032356e+01 2.100000e+00
         vertex -1.832405e+01 1.122595e+01 2.100000e+00
      endloop
   endfacet
   facet normal -9.628797e-01 -2.699309e-01 0.000000e+00
      outer loop
         vertex -1.735703e+01 1.032356e+01 0.000000e+00
         vertex -1.700000e+01 9.050000e+00 0.000000e+00
         vertex -1.700000e+01 9.050000e+00 2.100000e+00
      endloop
   endfacet
   facet normal -9.628797e-01 -2.699309e-01 0.000000e+00
      outer loop
         vertex -1.735703e+01 1.032356e+01 0.000000e+00
         vertex -1.700000e+01 9.050000e+00 2.100000e+00
         vertex -1.735703e+01 1.032356e+01 2.100000e+00
      endloop
   endfacet
   facet normal -9.628798e-01 2.699307e-01 0.000000e+00
      outer loop
         vertex -1.700000e+01 9.050000e+00 0.000000e+00
         vertex -1.735703e+01 7.776436e+00 0.000000e+00
         vertex -1.735703e+01 7.776436e+00 2.100000e+00
      endloop
   endfacet
   facet normal -9.628798e-01 2.699307e-01 0.000000e+00
      outer loop
         vertex -1.700000e+01 9.050000e+00 0.000000e+00
         vertex -1.735703e+01 7.776436e+00 2.100000e+00
         vertex -1.700000e+01 9.050000e+00 2.100000e+00
      endloop
   endfacet
   facet normal -6.822475e-01 7.311213e-01 0.000000e+00
      outer loop
         vertex -1.735703e+01 7.776436e+00 0.000000e+00
         vertex -1.832405e+01 6.874053e+00 0.000000e+00
         vertex -1.832405e+01 6.874053e+00 2.100000e+00
      endloop
   endfacet
   facet normal -6.822475e-01 7.311213e-01 0.000000e+00
      outer loop
         vertex -1.735703e+01 7.776436e+00 0.000000e+00
         vertex -1.832405e+01 6.874053e+00 2.100000e+00
         vertex -1.735703e+01 7.776436e+00 2.100000e+00
      endloop
   endfacet
   facet normal -2.027738e-01 9.792256e-01 0.000000e+00
      outer loop
         vertex -1.832405e+01 6.874053e+00 0.000000e+00
         vertex -1.961924e+01 6.605852e+00 0.000000e+00
         vertex -1.961924e+01 6.605852e+00 2.100000e+00
      endloop
   endfacet
   facet normal -2.027738e-01 9.792256e-01 0.000000e+00
      outer loop
         vertex -1.832405e+01 6.874053e+00 0.000000e+00
         vertex -1.961924e+01 6.605852e+00 2.100000e+00
         vertex -1.832405e+01 6.874053e+00 2.100000e+00
      endloop
   endfacet
   facet normal 3.357988e-01 9.419337e-01 -0.000000e+00
      outer loop
         vertex -1.961924e+01 6.605852e+00 0.000000e+00
         vertex -2.086510e+01 7.050000e+00 0.000000e+00
         vertex -2.086510e+01 7.050000e+00 2.100000e+00
      endloop
   endfacet
   facet normal 3.357988e-01 9.419337e-01 0.000000e+00
      outer loop
         vertex -1.961924e+01 6.605852e+00 0.000000e+00
         vertex -2.086510e+01 7.050000e+00 2.100000e+00
         vertex -1.961924e+01 6.605852e+00 2.100000e+00
      endloop
   endfacet
   facet normal 0.000000e+00 1.000000e+00 -0.000000e+00
      outer loop
         vertex -2.086510e+01 7.050000e+00 2.100000e+00
         vertex -2.086510e+01 7.050000e+00 0.000000e+00
         vertex -2.220000e+01 7.050000e+00 0.000000e+00
      endloop
   endfacet
   facet normal -0.000000e+00 1.000000e+00 0.000000e+00
      outer loop
         vertex -2.220000e+01 7.050000e+00 0.000000e+00
         vertex -2.220000e+01 7.050000e+00 2.100000e+00
         vertex -2.086510e+01 7.050000e+00 2.100000e+00
      endloop
   endfacet
   facet normal -2.588190e-01 9.659258e-01 0.000000e+00
      outer loop
         vertex -2.220000e+01 7.050000e+00 0.000000e+00
         vertex -2.270000e+01 6.916026e+00 0.000000e+00
         vertex -2.270000e+01 6.916026e+00 2.100000e+00
      endloop
   endfacet
   facet normal -2.588190e-01 9.659258e-01 0.000000e+00
      outer loop
         vertex -2.220000e+01 7.050000e+00 0.000000e+00
         vertex -2.270000e+01 6.916026e+00 2.100000e+00
         vertex -2.220000e+01 7.050000e+00 2.100000e+00
      endloop
   endfacet
   facet normal -7.071082e-01 7.071054e-01 0.000000e+00
      outer loop
         vertex -2.270000e+01 6.916026e+00 0.000000e+00
         vertex -2.306602e+01 6.550000e+00 0.000000e+00
         vertex -2.306602e+01 6.550000e+00 2.100000e+00
      endloop
   endfacet
   facet normal -7.071082e-01 7.071054e-01 0.000000e+00
      outer loop
         vertex -2.270000e+01 6.916026e+00 0.000000e+00
         vertex -2.306602e+01 6.550000e+00 2.100000e+00
         vertex -2.270000e+01 6.916026e+00 2.100000e+00
      endloop
   endfacet
   facet normal -9.659252e-01 2.588215e-01 0.000000e+00
      outer loop
         vertex -2.306602e+01 6.550000e+00 0.000000e+00
         vertex -2.320000e+01 6.050000e+00 0.000000e+00
         vertex -2.320000e+01 6.050000e+00 2.100000e+00
      endloop
   endfacet
   facet normal -9.659252e-01 2.588215e-01 0.000000e+00
      outer loop
         vertex -2.306602e+01 6.550000e+00 0.000000e+00
         vertex -2.320000e+01 6.050000e+00 2.100000e+00
         vertex -2.306602e+01 6.550000e+00 2.100000e+00
      endloop
   endfacet
   facet normal -1.000000e+00 0.000000e+00 0.000000e+00
      outer loop
         vertex -2.320000e+01 6.050000e+00 2.100000e+00
         vertex -2.320000e+01 6.050000e+00 0.000000e+00
         vertex -2.320000e+01 -6.050000e+00 0.000000e+00
      endloop
   endfacet
   facet normal -1.000000e+00 0.000000e+00 0.000000e+00
      outer loop
         vertex -2.320000e+01 -6.050000e+00 0.000000e+00
         vertex -2.320000e+01 -6.050000e+00 2.100000e+00
         vertex -2.320000e+01 6.050000e+00 2.100000e+00
      endloop
   endfacet
   facet normal -9.659252e-01 -2.588215e-01 0.000000e+00
      outer loop
         vertex -2.320000e+01 -6.050000e+00 0.000000e+00
         vertex -2.306602e+01 -6.550000e+00 0.000000e+00
         vertex -2.306602e+01 -6.550000e+00 2.100000e+00
      endloop
   endfacet
   facet normal -9.659252e-01 -2.588215e-01 0.000000e+00
      outer loop
         vertex -2.320000e+01 -6.050000e+00 0.000000e+00
         vertex -2.306602e+01 -6.550000e+00 2.100000e+00
         vertex -2.320000e+01 -6.050000e+00 2.100000e+00
      endloop
   endfacet
   facet normal -7.071082e-01 -7.071054e-01 0.000000e+00
      outer loop
         vertex -2.306602e+01 -6.550000e+00 0.000000e+00
         vertex -2.270000e+01 -6.916026e+00 0.000000e+00
         vertex -2.270000e+01 -6.916026e+00 2.100000e+00
      endloop
   endfacet
   facet normal -7.071082e-01 -7.071054e-01 0.000000e+00
      outer loop
         vertex -2.306602e+01 -6.550000e+00 0.000000e+00
         vertex -2.270000e+01 -6.916026e+00 2.100000e+00
         vertex -2.306602e+01 -6.550000e+00 2.100000e+00
      endloop
   endfacet
   facet normal -2.588190e-01 -9.659258e-01 0.000000e+00
      outer loop
         vertex -2.270000e+01 -6.916026e+00 0.000000e+00
         vertex -2.220000e+01 -7.050000e+00 0.000000e+00
         vertex -2.220000e+01 -7.050000e+00 2.100000e+00
      endloop
   endfacet
   facet normal -2.588190e-01 -9.659258e-01 0.000000e+00
      outer loop
         vertex -2.270000e+01 -6.916026e+00 0.000000e+00
         vertex -2.220000e+01 -7.050000e+00 2.100000e+00
         vertex -2.270000e+01 -6.916026e+00 2.100000e+00
      endloop
   endfacet
   facet normal 0.000000e+00 -1.000000e+00 0.000000e+00
      outer loop
         vertex -2.220000e+01 -7.050000e+00 2.100000e+00
         vertex -2.220000e+01 -7.050000e+00 0.000000e+00
         vertex -2.086510e+01 -7.050000e+00 0.000000e+00
      endloop
   endfacet
   facet normal -0.000000e+00 -1.000000e+00 -0.000000e+00
      outer loop
         vertex -2.086510e+01 -7.050000e+00 0.000000e+00
         vertex -2.086510e+01 -7.050000e+00 2.100000e+00
         vertex -2.220000e+01 -7.050000e+00 2.100000e+00
      endloop
   endfacet
   facet normal 3.357988e-01 -9.419337e-01 0.000000e+00
      outer loop
         vertex -2.086510e+01 -7.050000e+00 0.000000e+00
         vertex -1.961924e+01 -6.605852e+00 0.000000e+00
         vertex -1.961924e+01 -6.605852e+00 2.100000e+00
      endloop
   endfacet
   facet normal 3.357988e-01 -9.419337e-01 0.000000e+00
      outer loop
         vertex -2.086510e+01 -7.050000e+00 0.000000e+00
         vertex -1.961924e+01 -6.605852e+00 2.100000e+00
         vertex -2.086510e+01 -7.050000e+00 2.100000e+00
      endloop
   endfacet
   facet normal -2.027738e-01 -9.792256e-01 0.000000e+00
      outer loop
         vertex -1.961924e+01 -6.605852e+00 0.000000e+00
         vertex -1.832405e+01 -6.874053e+00 0.000000e+00
         vertex -1.832405e+01 -6.874053e+00 2.100000e+00
      endloop
   endfacet
   facet normal -2.027738e-01 -9.792256e-01 0.000000e+00
      outer loop
         vertex -1.961924e+01 -6.605852e+00 0.000000e+00
         vertex -1.832405e+01 -6.874053e+00 2.100000e+00
         vertex -1.961924e+01 -6.605852e+00 2.100000e+00
      endloop
   endfacet
   facet normal -6.822475e-01 -7.311213e-01 0.000000e+00
      outer loop
         vertex -1.832405e+01 -6.874053e+00 0.000000e+00
         vertex -1.735703e+01 -7.776436e+00 0.000000e+00
         vertex -1.735703e+01 -7.776436e+00 2.100000e+00
      endloop
   endfacet
   facet normal -6.822475e-01 -7.311213e-01 0.000000e+00
      outer loop
         vertex -1.832405e+01 -6.874053e+00 0.000000e+00
         vertex -1.735703e+01 -7.776436e+00 2.100000e+00
         vertex -1.832405e+01 -6.874053e+00 2.100000e+00
      endloop
   endfacet
   facet normal -9.628798e-01 -2.699307e-01 0.000000e+00
      outer loop
         vertex -1.735703e+01 -7.776436e+00 0.000000e+00
         vertex -1.700000e+01 -9.050000e+00 0.000000e+00
         vertex -1.700000e+01 -9.050000e+00 2.100000e+00
      endloop
   endfacet
   facet normal -9.628798e-01 -2.699307e-01 0.000000e+00
      outer loop
         vertex -1.735703e+01 -7.776436e+00 0.000000e+00
         vertex -1.700000e+01 -9.050000e+00 2.100000e+00
         vertex -1.735703e+01 -7.776436e+00 2.100000e+00
      endloop
   endfacet
   facet normal -9.628797e-01 2.699309e-01 0.000000e+00
      outer loop
         vertex -1.700000e+01 -9.050000e+00 0.000000e+00
         vertex -1.735703e+01 -1.032356e+01 0.000000e+00
         vertex -1.735703e+01 -1.032356e+01 2.100000e+00
      endloop
   endfacet
   facet normal -9.628797e-01 2.699309e-01 0.000000e+00
      outer loop
         vertex -1.700000e+01 -9.050000e+00 0.000000e+00
         vertex -1.735703e+01 -1.032356e+01 2.100000e+00
         vertex -1.700000e+01 -9.050000e+00 2.100000e+00
      endloop
   endfacet
   facet normal -6.822477e-01 7.311211e-01 0.000000e+00
      outer loop
         vertex -1.735703e+01 -1.032356e+01 0.000000e+00
         vertex -1.832405e+01 -1.122595e+01 0.000000e+00
         vertex -1.832405e+01 -1.122595e+01 2.100000e+00
      endloop
   endfacet
   facet normal -6.822477e-01 7.311211e-01 0.000000e+00
      outer loop
         vertex -1.735703e+01 -1.032356e+01 0.000000e+00
         vertex -1.832405e+01 -1.122595e+01 2.100000e+00
         vertex -1.735703e+01 -1.032356e+01 2.100000e+00
      endloop
   endfacet
   facet normal -2.027742e-01 9.792255e-01 0.000000e+00
      outer loop
         vertex -1.832405e+01 -1.122595e+01 0.000000e+00
         vertex -1.961924e+01 -1.149415e+01 0.000000e+00
         vertex -1.961924e+01 -1.149415e+01 2.100000e+00
      endloop
   endfacet
   facet normal -2.027742e-01 9.792255e-01 0.000000e+00
      outer loop
         vertex -1.832405e+01 -1.122595e+01 0.000000e+00
         vertex -1.961924e+01 -1.149415e+01 2.100000e+00
         vertex -1.832405e+01 -1.122595e+01 2.100000e+00
      endloop
   endfacet
   facet normal 3.357988e-01 9.419337e-01 -0.000000e+00
      outer loop
         vertex -1.961924e+01 -1.149415e+01 0.000000e+00
         vertex -2.086510e+01 -1.105000e+01 0.000000e+00
         vertex -2.086510e+01 -1.105000e+01 2.100000e+00
      endloop
   endfacet
   facet normal 3.357988e-01 9.419337e-01 0.000000e+00
      outer loop
         vertex -1.961924e+01 -1.149415e+01 0.000000e+00
         vertex -2.086510e+01 -1.105000e+01 2.100000e+00
         vertex -1.961924e+01 -1.149415e+01 2.100000e+00
      endloop
   endfacet
   facet normal 0.000000e+00 1.000000e+00 -0.000000e+00
      outer loop
         vertex -2.086510e+01 -1.105000e+01 2.100000e+00
         vertex -2.086510e+01 -1.105000e+01 0.000000e+00
         vertex -2.220000e+01 -1.105000e+01 0.000000e+00
      endloop
   endfacet
   facet normal -0.000000e+00 1.000000e+00 0.000000e+00
      outer loop
         vertex -2.220000e+01 -1.105000e+01 0.000000e+00
         vertex -2.220000e+01 -1.105000e+01 2.100000e+00
         vertex -2.086510e+01 -1.105000e+01 2.100000e+00
      endloop
   endfacet
   facet normal -2.588181e-01 9.659261e-01 0.000000e+00
      outer loop
         vertex -2.220000e+01 -1.105000e+01 0.000000e+00
         vertex -2.270000e+01 -1.118397e+01 0.000000e+00
         vertex -2.270000e+01 -1.118397e+01 2.100000e+00
      endloop
   endfacet
   facet normal -2.588181e-01 9.659261e-01 0.000000e+00
      outer loop
         vertex -2.220000e+01 -1.105000e+01 0.000000e+00
         vertex -2.270000e+01 -1.118397e+01 2.100000e+00
         vertex -2.220000e+01 -1.105000e+01 2.100000e+00
      endloop
   endfacet
   facet normal -7.071086e-01 7.071049e-01 0.000000e+00
      outer loop
         vertex -2.270000e+01 -1.118397e+01 0.000000e+00
         vertex -2.306602e+01 -1.155000e+01 0.000000e+00
         vertex -2.306602e+01 -1.155000e+01 2.100000e+00
      endloop
   endfacet
   facet normal -7.071086e-01 7.071049e-01 0.000000e+00
      outer loop
         vertex -2.270000e+01 -1.118397e+01 0.000000e+00
         vertex -2.306602e+01 -1.155000e+01 2.100000e+00
         vertex -2.270000e+01 -1.118397e+01 2.100000e+00
      endloop
   endfacet
   facet normal -9.659252e-01 2.588215e-01 0.000000e+00
      outer loop
         vertex -2.306602e+01 -1.155000e+01 0.000000e+00
         vertex -2.320000e+01 -1.205000e+01 0.000000e+00
         vertex -2.320000e+01 -1.205000e+01 2.100000e+00
      endloop
   endfacet
   facet normal -9.659252e-01 2.588215e-01 0.000000e+00
      outer loop
         vertex -2.306602e+01 -1.155000e+01 0.000000e+00
         vertex -2.320000e+01 -1.205000e+01 2.100000e+00
         vertex -2.306602e+01 -1.155000e+01 2.100000e+00
      endloop
   endfacet
   facet normal 1.000000e+00 0.000000e+00 0.000000e+00
      outer loop
         vertex 8.400000e+00 -1.200000e+01 4.200000e+00
         vertex 8.400000e+00 -1.200000e+01 2.100000e+00
         vertex 8.400000e+00 1.200000e+01 2.100000e+00
      endloop
   endfacet
   facet normal 1.000000e+00 0.000000e+00 0.000000e+00
      outer loop
         vertex 8.400000e+00 1.200000e+01 2.100000e+00
         vertex 8.400000e+00 1.200000e+01 4.200000e+00
         vertex 8.400000e+00 -1.200000e+01 4.200000e+00
      endloop
   endfacet
   facet normal 0.000000e+00 1.000000e+00 0.000000e+00
      outer loop
         vertex 6.400000e+00 -1.200000e+01 0.000000e+00
         vertex 2.200000e+00 -1.200000e+01 0.000000e+00
         vertex 2.200000e+00 -1.200000e+01 2.100000e+00
      endloop
   endfacet
   facet normal 0.000000e+00 1.000000e+00 0.000000e+00
      outer loop
         vertex 2.200000e+00 -1.200000e+01 2.100000e+00
         vertex 6.400000e+00 -1.200000e+01 2.100000e+00
         vertex 6.400000e+00 -1.200000e+01 0.000000e+00
      endloop
   endfacet
   facet normal 1.000000e+00 0.000000e+00 -0.000000e+00
      outer loop
         vertex 2.200000e+00 -1.200000e+01 0.000000e+00
         vertex 2.200000e+00 1.200000e+01 0.000000e+00
         vertex 2.200000e+00 1.200000e+01 2.100000e+00
      endloop
   endfacet
   facet normal 1.000000e+00 -0.000000e+00 0.000000e+00
      outer loop
         vertex 2.200000e+00 1.200000e+01 2.100000e+00
         vertex 2.200000e+00 -1.200000e+01 2.100000e+00
         vertex 2.200000e+00 -1.200000e+01 0.000000e+00
      endloop
   endfacet
   facet normal 0.000000e+00 -1.000000e+00 0.000000e+00
      outer loop
         vertex 2.200000e+00 1.200000e+01 0.000000e+00
         vertex 6.400000e+00 1.200000e+01 0.000000e+00
         vertex 6.400000e+00 1.200000e+01 2.100000e+00
      endloop
   endfacet
   facet normal 0.000000e+00 -1.000000e+00 0.000000e+00
      outer loop
         vertex 6.400000e+00 1.200000e+01 2.100000e+00
         vertex 2.200000e+00 1.200000e+01 2.100000e+00
         vertex 2.200000e+00 1.200000e+01 0.000000e+00
      endloop
   endfacet
   facet normal -1.000000e+00 0.000000e+00 0.000000e+00
      outer loop
         vertex -8.400000e+00 1.200000e+01 4.200000e+00
         vertex -8.400000e+00 1.200000e+01 2.100000e+00
         vertex -8.400000e+00 -1.200000e+01 2.100000e+00
      endloop
   endfacet
   facet normal -1.000000e+00 0.000000e+00 0.000000e+00
      outer loop
         vertex -8.400000e+00 -1.200000e+01 2.100000e+00
         vertex -8.400000e+00 -1.200000e+01 4.200000e+00
         vertex -8.400000e+00 1.200000e+01 4.200000e+00
      endloop
   endfacet
   facet normal 0.000000e+00 -1.000000e+00 0.000000e+00
      outer loop
         vertex -6.400000e+00 1.200000e+01 0.000000e+00
         vertex -2.200000e+00 1.200000e+01 0.000000e+00
         vertex -2.200000e+00 1.200000e+01 2.100000e+00
      endloop
   endfacet
   facet normal 0.000000e+00 -1.000000e+00 0.000000e+00
      outer loop
         vertex -2.200000e+00 1.200000e+01 2.100000e+00
         vertex -6.400000e+00 1.200000e+01 2.100000e+00
         vertex -6.400000e+00 1.200000e+01 0.000000e+00
      endloop
   endfacet
   facet normal -1.000000e+00 0.000000e+00 0.000000e+00
      outer loop
         vertex -2.200000e+00 1.200000e+01 0.000000e+00
         vertex -2.200000e+00 -1.200000e+01 0.000000e+00
         vertex -2.200000e+00 -1.200000e+01 2.100000e+00
      endloop
   endfacet
   facet normal -1.000000e+00 -0.000000e+00 -0.000000e+00
      outer loop
         vertex -2.200000e+00 -1.200000e+01 2.100000e+00
         vertex -2.200000e+00 1.200000e+01 2.100000e+00
         vertex -2.200000e+00 1.200000e+01 0.000000e+00
      endloop
   endfacet
   facet normal 0.000000e+00 1.000000e+00 0.000000e+00
      outer loop
         vertex -2.200000e+00 -1.200000e+01 0.000000e+00
         vertex -6.400000e+00 -1.200000e+01 0.000000e+00
         vertex -6.400000e+00 -1.200000e+01 2.100000e+00
      endloop
   endfacet
   facet normal 0.000000e+00 1.000000e+00 0.000000e+00
      outer loop
         vertex -6.400000e+00 -1.200000e+01 2.100000e+00
         vertex -2.200000e+00 -1.200000e+01 2.100000e+00
         vertex -2.200000e+00 -1.200000e+01 0.000000e+00
      endloop
   endfacet
   facet normal 0.000000e+00 0.000000e+00 1.000000e+00
      outer loop
         vertex 8.400000e+00 -1.200000e+01 4.200000e+00
         vertex 8.400000e+00 1.200000e+01 4.200000e+00
         vertex 3.800000e+00 1.200000e+01 4.200000e+00
      endloop
   endfacet
   facet normal 0.000000e+00 0.000000e+00 1.000000e+00
      outer loop
         vertex 3.800000e+00 1.200000e+01 4.200000e+00
         vertex 3.800000e+00 -1.200000e+01 4.200000e+00
         vertex 8.400000e+00 -1.200000e+01 4.200000e+00
      endloop
   endfacet
   facet normal -0.000000e+00 0.000000e+00 1.000000e+00
      outer loop
         vertex -3.800000e+00 1.200000e+01 4.200000e+00
         vertex -8.400000e+00 1.200000e+01 4.200000e+00
         vertex -8.400000e+00 -1.200000e+01 4.200000e+00
      endloop
   endfacet
   facet normal 0.000000e+00 -0.000000e+00 1.000000e+00
      outer loop
         vertex -8.400000e+00 -1.200000e+01 4.200000e+00
         vertex -3.800000e+00 -1.200000e+01 4.200000e+00
         vertex -3.800000e+00 1.200000e+01 4.200000e+00
      endloop
   endfacet
   facet normal 0.000000e+00 0.000000e+00 -1.000000e+00
      outer loop
         vertex -1.961924e+01 -1.149415e+01 0.000000e+00
         vertex -2.320000e+01 -1.620000e+01 0.000000e+00
         vertex -2.320000e+01 -1.205000e+01 0.000000e+00
      endloop
   endfacet
   facet normal 0.000000e+00 0.000000e+00 -1.000000e+00
      outer loop
         vertex 2.200000e+00 -1.200000e+01 0.000000e+00
         vertex 2.320000e+01 -1.620000e+01 0.000000e+00
         vertex -2.320000e+01 -1.620000e+01 0.000000e+00
      endloop
   endfacet
   facet normal -0.000000e+00 -0.000000e+00 -1.000000e+00
      outer loop
         vertex 1.961924e+01 -1.149415e+01 0.000000e+00
         vertex 2.320000e+01 -1.205000e+01 0.000000e+00
         vertex 2.320000e+01 -1.620000e+01 0.000000e+00
      endloop
   endfacet
   facet normal -0.000000e+00 -0.000000e+00 -1.000000e+00
      outer loop
         vertex 2.270000e+01 -1.118397e+01 0.000000e+00
         vertex 2.306602e+01 -1.155000e+01 0.000000e+00
         vertex 2.320000e+01 -1.205000e+01 0.000000e+00
      endloop
   endfacet
   facet normal 0.000000e+00 0.000000e+00 -1.000000e+00
      outer loop
         vertex 2.320000e+01 -1.205000e+01 0.000000e+00
         vertex 2.220000e+01 -1.105000e+01 0.000000e+00
         vertex 2.270000e+01 -1.118397e+01 0.000000e+00
      endloop
   endfacet
   facet normal 0.000000e+00 0.000000e+00 -1.000000e+00
      outer loop
         vertex 2.320000e+01 -1.205000e+01 0.000000e+00
         vertex 2.086510e+01 -1.105000e+01 0.000000e+00
         vertex 2.220000e+01 -1.105000e+01 0.000000e+00
      endloop
   endfacet
   facet normal 0.000000e+00 0.000000e+00 -1.000000e+00
      outer loop
         vertex 2.320000e+01 -1.205000e+01 0.000000e+00
         vertex 1.961924e+01 -1.149415e+01 0.000000e+00
         vertex 2.086510e+01 -1.105000e+01 0.000000e+00
      endloop
   endfacet
   facet normal 0.000000e+00 0.000000e+00 -1.000000e+00
      outer loop
         vertex 2.320000e+01 -1.620000e+01 0.000000e+00
         vertex 1.832405e+01 -1.122595e+01 0.000000e+00
         vertex 1.961924e+01 -1.149415e+01 0.000000e+00
      endloop
   endfacet
   facet normal 0.000000e+00 -0.000000e+00 -1.000000e+00
      outer loop
         vertex 6.400000e+00 -1.200000e+01 0.000000e+00
         vertex 1.735703e+01 -1.032356e+01 0.000000e+00
         vertex 1.832405e+01 -1.122595e+01 0.000000e+00
      endloop
   endfacet
   facet normal 0.000000e+00 -0.000000e+00 -1.000000e+00
      outer loop
         vertex 6.400000e+00 -1.200000e+01 0.000000e+00
         vertex 1.700000e+01 -9.050000e+00 0.000000e+00
         vertex 1.735703e+01 -1.032356e+01 0.000000e+00
      endloop
   endfacet
   facet normal 0.000000e+00 0.000000e+00 -1.000000e+00
      outer loop
         vertex 6.400000e+00 -1.200000e+01 0.000000e+00
         vertex 1.735703e+01 -7.776436e+00 0.000000e+00
         vertex 1.700000e+01 -9.050000e+00 0.000000e+00
      endloop
   endfacet
   facet normal -0.000000e+00 0.000000e+00 -1.000000e+00
      outer loop
         vertex 1.832405e+01 6.874053e+00 0.000000e+00
         vertex 1.832405e+01 -6.874053e+00 0.000000e+00
         vertex 1.735703e+01 -7.776436e+00 0.000000e+00
      endloop
   endfacet
   facet normal -0.000000e+00 0.000000e+00 -1.000000e+00
      outer loop
         vertex 1.961924e+01 6.605852e+00 0.000000e+00
         vertex 1.961924e+01 -6.605852e+00 0.000000e+00
         vertex 1.832405e+01 -6.874053e+00 0.000000e+00
      endloop
   endfacet
   facet normal 0.000000e+00 0.000000e+00 -1.000000e+00
      outer loop
         vertex 2.320000e+01 -6.050000e+00 0.000000e+00
         vertex 2.086510e+01 -7.050000e+00 0.000000e+00
         vertex 1.961924e+01 -6.605852e+00 0.000000e+00
      endloop
   endfacet
   facet normal 0.000000e+00 0.000000e+00 -1.000000e+00
      outer loop
         vertex 2.320000e+01 -6.050000e+00 0.000000e+00
         vertex 2.220000e+01 -7.050000e+00 0.000000e+00
         vertex 2.086510e+01 -7.050000e+00 0.000000e+00
      endloop
   endfacet
   facet normal -0.000000e+00 0.000000e+00 -1.000000e+00
      outer loop
         vertex 2.306602e+01 -6.550000e+00 0.000000e+00
         vertex 2.270000e+01 -6.916026e+00 0.000000e+00
         vertex 2.220000e+01 -7.050000e+00 0.000000e+00
      endloop
   endfacet
   facet normal 0.000000e+00 0.000000e+00 -1.000000e+00
      outer loop
         vertex 2.220000e+01 -7.050000e+00 0.000000e+00
         vertex 2.320000e+01 -6.050000e+00 0.000000e+00
         vertex 2.306602e+01 -6.550000e+00 0.000000e+00
      endloop
   endfacet
   facet normal 0.000000e+00 -0.000000e+00 -1.000000e+00
      outer loop
         vertex 1.961924e+01 -6.605852e+00 0.000000e+00
         vertex 2.320000e+01 6.050000e+00 0.000000e+00
         vertex 2.320000e+01 -6.050000e+00 0.000000e+00
      endloop
   endfacet
   facet normal -0.000000e+00 -0.000000e+00 -1.000000e+00
      outer loop
         vertex 2.220000e+01 7.050000e+00 0.000000e+00
         vertex 2.306602e+01 6.550000e+00 0.000000e+00
         vertex 2.320000e+01 6.050000e+00 0.000000e+00
      endloop
   endfacet
   facet normal -0.000000e+00 -0.000000e+00 -1.000000e+00
      outer loop
         vertex 2.220000e+01 7.050000e+00 0.000000e+00
         vertex 2.270000e+01 6.916026e+00 0.000000e+00
         vertex 2.306602e+01 6.550000e+00 0.000000e+00
      endloop
   endfacet
   facet normal 0.000000e+00 0.000000e+00 -1.000000e+00
      outer loop
         vertex 2.320000e+01 6.050000e+00 0.000000e+00
         vertex 2.086510e+01 7.050000e+00 0.000000e+00
         vertex 2.220000e+01 7.050000e+00 0.000000e+00
      endloop
   endfacet
   facet normal 0.000000e+00 0.000000e+00 -1.000000e+00
      outer loop
         vertex 2.320000e+01 6.050000e+00 0.000000e+00
         vertex 1.961924e+01 6.605852e+00 0.000000e+00
         vertex 2.086510e+01 7.050000e+00 0.000000e+00
      endloop
   endfacet
   facet normal 0.000000e+00 0.000000e+00 -1.000000e+00
      outer loop
         vertex 1.832405e+01 -6.874053e+00 0.000000e+00
         vertex 1.832405e+01 6.874053e+00 0.000000e+00
         vertex 1.961924e+01 6.605852e+00 0.000000e+00
      endloop
   endfacet
   facet normal 0.000000e+00 0.000000e+00 -1.000000e+00
      outer loop
         vertex 1.735703e+01 -7.776436e+00 0.000000e+00
         vertex 1.735703e+01 7.776436e+00 0.000000e+00
         vertex 1.832405e+01 6.874053e+00 0.000000e+00
      endloop
   endfacet
   facet normal -0.000000e+00 -0.000000e+00 -1.000000e+00
      outer loop
         vertex 6.400000e+00 1.200000e+01 0.000000e+00
         vertex 1.700000e+01 9.050000e+00 0.000000e+00
         vertex 1.735703e+01 7.776436e+00 0.000000e+00
      endloop
   endfacet
   facet normal -0.000000e+00 0.000000e+00 -1.000000e+00
      outer loop
         vertex 6.400000e+00 1.200000e+01 0.000000e+00
         vertex 1.735703e+01 1.032356e+01 0.000000e+00
         vertex 1.700000e+01 9.050000e+00 0.000000e+00
      endloop
   endfacet
   facet normal -0.000000e+00 0.000000e+00 -1.000000e+00
      outer loop
         vertex 6.400000e+00 1.200000e+01 0.000000e+00
         vertex 1.832405e+01 1.122595e+01 0.000000e+00
         vertex 1.735703e+01 1.032356e+01 0.000000e+00
      endloop
   endfacet
   facet normal -0.000000e+00 0.000000e+00 -1.000000e+00
      outer loop
         vertex 2.320000e+01 1.620000e+01 0.000000e+00
         vertex 1.961924e+01 1.149415e+01 0.000000e+00
         vertex 1.832405e+01 1.122595e+01 0.000000e+00
      endloop
   endfacet
   facet normal 0.000000e+00 0.000000e+00 -1.000000e+00
      outer loop
         vertex 2.320000e+01 1.205000e+01 0.000000e+00
         vertex 2.086510e+01 1.105000e+01 0.000000e+00
         vertex 1.961924e+01 1.149415e+01 0.000000e+00
      endloop
   endfacet
   facet normal 0.000000e+00 0.000000e+00 -1.000000e+00
      outer loop
         vertex 2.320000e+01 1.205000e+01 0.000000e+00
         vertex 2.220000e+01 1.105000e+01 0.000000e+00
         vertex 2.086510e+01 1.105000e+01 0.000000e+00
      endloop
   endfacet
   facet normal -0.000000e+00 0.000000e+00 -1.000000e+00
      outer loop
         vertex 2.306602e+01 1.155000e+01 0.000000e+00
         vertex 2.270000e+01 1.118397e+01 0.000000e+00
         vertex 2.220000e+01 1.105000e+01 0.000000e+00
      endloop
   endfacet
   facet normal 0.000000e+00 0.000000e+00 -1.000000e+00
      outer loop
         vertex 2.220000e+01 1.105000e+01 0.000000e+00
         vertex 2.320000e+01 1.205000e+01 0.000000e+00
         vertex 2.306602e+01 1.155000e+01 0.000000e+00
      endloop
   endfacet
   facet normal 0.000000e+00 -0.000000e+00 -1.000000e+00
      outer loop
         vertex 1.961924e+01 1.149415e+01 0.000000e+00
         vertex 2.320000e+01 1.620000e+01 0.000000e+00
         vertex 2.320000e+01 1.205000e+01 0.000000e+00
      endloop
   endfacet
   facet normal 0.000000e+00 0.000000e+00 -1.000000e+00
      outer loop
         vertex 2.200000e+00 1.200000e+01 0.000000e+00
         vertex -2.320000e+01 1.620000e+01 0.000000e+00
         vertex 2.320000e+01 1.620000e+01 0.000000e+00
      endloop
   endfacet
   facet normal 0.000000e+00 0.000000e+00 -1.000000e+00
      outer loop
         vertex -1.961924e+01 1.149415e+01 0.000000e+00
         vertex -2.320000e+01 1.205000e+01 0.000000e+00
         vertex -2.320000e+01 1.620000e+01 0.000000e+00
      endloop
   endfacet
   facet normal 0.000000e+00 0.000000e+00 -1.000000e+00
      outer loop
         vertex -2.270000e+01 1.118397e+01 0.000000e+00
         vertex -2.306602e+01 1.155000e+01 0.000000e+00
         vertex -2.320000e+01 1.205000e+01 0.000000e+00
      endloop
   endfacet
   facet normal 0.000000e+00 0.000000e+00 -1.000000e+00
      outer loop
         vertex -2.320000e+01 1.205000e+01 0.000000e+00
         vertex -2.220000e+01 1.105000e+01 0.000000e+00
         vertex -2.270000e+01 1.118397e+01 0.000000e+00
      endloop
   endfacet
   facet normal 0.000000e+00 0.000000e+00 -1.000000e+00
      outer loop
         vertex -2.320000e+01 1.205000e+01 0.000000e+00
         vertex -2.086510e+01 1.105000e+01 0.000000e+00
         vertex -2.220000e+01 1.105000e+01 0.000000e+00
      endloop
   endfacet
   facet normal -0.000000e+00 0.000000e+00 -1.000000e+00
      outer loop
         vertex -2.320000e+01 1.205000e+01 0.000000e+00
         vertex -1.961924e+01 1.149415e+01 0.000000e+00
         vertex -2.086510e+01 1.105000e+01 0.000000e+00
      endloop
   endfacet
   facet normal 0.000000e+00 0.000000e+00 -1.000000e+00
      outer loop
         vertex -2.320000e+01 1.620000e+01 0.000000e+00
         vertex -1.832405e+01 1.122595e+01 0.000000e+00
         vertex -1.961924e+01 1.149415e+01 0.000000e+00
      endloop
   endfacet
   facet normal 0.000000e+00 0.000000e+00 -1.000000e+00
      outer loop
         vertex -6.400000e+00 1.200000e+01 0.000000e+00
         vertex -1.735703e+01 1.032356e+01 0.000000e+00
         vertex -1.832405e+01 1.122595e+01 0.000000e+00
      endloop
   endfacet
   facet normal 0.000000e+00 0.000000e+00 -1.000000e+00
      outer loop
         vertex -6.400000e+00 1.200000e+01 0.000000e+00
         vertex -1.700000e+01 9.050000e+00 0.000000e+00
         vertex -1.735703e+01 1.032356e+01 0.000000e+00
      endloop
   endfacet
   facet normal 0.000000e+00 0.000000e+00 -1.000000e+00
      outer loop
         vertex -6.400000e+00 1.200000e+01 0.000000e+00
         vertex -1.735703e+01 7.776436e+00 0.000000e+00
         vertex -1.700000e+01 9.050000e+00 0.000000e+00
      endloop
   endfacet
   facet normal 0.000000e+00 0.000000e+00 -1.000000e+00
      outer loop
         vertex -1.832405e+01 -6.874053e+00 0.000000e+00
         vertex -1.832405e+01 6.874053e+00 0.000000e+00
         vertex -1.735703e+01 7.776436e+00 0.000000e+00
      endloop
   endfacet
   facet normal 0.000000e+00 0.000000e+00 -1.000000e+00
      outer loop
         vertex -1.961924e+01 -6.605852e+00 0.000000e+00
         vertex -1.961924e+01 6.605852e+00 0.000000e+00
         vertex -1.832405e+01 6.874053e+00 0.000000e+00
      endloop
   endfacet
   facet normal 0.000000e+00 -0.000000e+00 -1.000000e+00
      outer loop
         vertex -2.320000e+01 6.050000e+00 0.000000e+00
         vertex -2.086510e+01 7.050000e+00 0.000000e+00
         vertex -1.961924e+01 6.605852e+00 0.000000e+00
      endloop
   endfacet
   facet normal 0.000000e+00 -0.000000e+00 -1.000000e+00
      outer loop
         vertex -2.320000e+01 6.050000e+00 0.000000e+00
         vertex -2.220000e+01 7.050000e+00 0.000000e+00
         vertex -2.086510e+01 7.050000e+00 0.000000e+00
      endloop
   endfacet
   facet normal 0.000000e+00 -0.000000e+00 -1.000000e+00
      outer loop
         vertex -2.306602e+01 6.550000e+00 0.000000e+00
         vertex -2.270000e+01 6.916026e+00 0.000000e+00
         vertex -2.220000e+01 7.050000e+00 0.000000e+00
      endloop
   endfacet
   facet normal 0.000000e+00 0.000000e+00 -1.000000e+00
      outer loop
         vertex -2.220000e+01 7.050000e+00 0.000000e+00
         vertex -2.320000e+01 6.050000e+00 0.000000e+00
         vertex -2.306602e+01 6.550000e+00 0.000000e+00
      endloop
   endfacet
   facet normal 0.000000e+00 0.000000e+00 -1.000000e+00
      outer loop
         vertex -1.961924e+01 6.605852e+00 0.000000e+00
         vertex -2.320000e+01 -6.050000e+00 0.000000e+00
         vertex -2.320000e+01 6.050000e+00 0.000000e+00
      endloop
   endfacet
   facet normal 0.000000e+00 0.000000e+00 -1.000000e+00
      outer loop
         vertex -2.270000e+01 -6.916026e+00 0.000000e+00
         vertex -2.306602e+01 -6.550000e+00 0.000000e+00
         vertex -2.320000e+01 -6.050000e+00 0.000000e+00
      endloop
   endfacet
   facet normal 0.000000e+00 0.000000e+00 -1.000000e+00
      outer loop
         vertex -2.320000e+01 -6.050000e+00 0.000000e+00
         vertex -2.220000e+01 -7.050000e+00 0.000000e+00
         vertex -2.270000e+01 -6.916026e+00 0.000000e+00
      endloop
   endfacet
   facet normal 0.000000e+00 0.000000e+00 -1.000000e+00
      outer loop
         vertex -2.320000e+01 -6.050000e+00 0.000000e+00
         vertex -2.086510e+01 -7.050000e+00 0.000000e+00
         vertex -2.220000e+01 -7.050000e+00 0.000000e+00
      endloop
   endfacet
   facet normal -0.000000e+00 0.000000e+00 -1.000000e+00
      outer loop
         vertex -2.320000e+01 -6.050000e+00 0.000000e+00
         vertex -1.961924e+01 -6.605852e+00 0.000000e+00
         vertex -2.086510e+01 -7.050000e+00 0.000000e+00
      endloop
   endfacet
   facet normal 0.000000e+00 0.000000e+00 -1.000000e+00
      outer loop
         vertex -1.832405e+01 6.874053e+00 0.000000e+00
         vertex -1.832405e+01 -6.874053e+00 0.000000e+00
         vertex -1.961924e+01 -6.605852e+00 0.000000e+00
      endloop
   endfacet
   facet normal 0.000000e+00 0.000000e+00 -1.000000e+00
      outer loop
         vertex -1.735703e+01 7.776436e+00 0.000000e+00
         vertex -1.735703e+01 -7.776436e+00 0.000000e+00
         vertex -1.832405e+01 -6.874053e+00 0.000000e+00
      endloop
   endfacet
   facet normal 0.000000e+00 0.000000e+00 -1.000000e+00
      outer loop
         vertex -6.400000e+00 -1.200000e+01 0.000000e+00
         vertex -1.700000e+01 -9.050000e+00 0.000000e+00
         vertex -1.735703e+01 -7.776436e+00 0.000000e+00
      endloop
   endfacet
   facet normal 0.000000e+00 0.000000e+00 -1.000000e+00
      outer loop
         vertex -6.400000e+00 -1.200000e+01 0.000000e+00
         vertex -1.735703e+01 -1.032356e+01 0.000000e+00
         vertex -1.700000e+01 -9.050000e+00 0.000000e+00
      endloop
   endfacet
   facet normal 0.000000e+00 0.000000e+00 -1.000000e+00
      outer loop
         vertex -6.400000e+00 -1.200000e+01 0.000000e+00
         vertex -1.832405e+01 -1.122595e+01 0.000000e+00
         vertex -1.735703e+01 -1.032356e+01 0.000000e+00
      endloop
   endfacet
   facet normal 0.000000e+00 -0.000000e+00 -1.000000e+00
      outer loop
         vertex -2.320000e+01 -1.620000e+01 0.000000e+00
         vertex -1.961924e+01 -1.149415e+01 0.000000e+00
         vertex -1.832405e+01 -1.122595e+01 0.000000e+00
      endloop
   endfacet
   facet normal 0.000000e+00 -0.000000e+00 -1.000000e+00
      outer loop
         vertex -2.320000e+01 -1.205000e+01 0.000000e+00
         vertex -2.086510e+01 -1.105000e+01 0.000000e+00
         vertex -1.961924e+01 -1.149415e+01 0.000000e+00
      endloop
   endfacet
   facet normal 0.000000e+00 -0.000000e+00 -1.000000e+00
      outer loop
         vertex -2.320000e+01 -1.205000e+01 0.000000e+00
         vertex -2.220000e+01 -1.105000e+01 0.000000e+00
         vertex -2.086510e+01 -1.105000e+01 0.000000e+00
      endloop
   endfacet
   facet normal 0.000000e+00 -0.000000e+00 -1.000000e+00
      outer loop
         vertex -2.306602e+01 -1.155000e+01 0.000000e+00
         vertex -2.270000e+01 -1.118397e+01 0.000000e+00
         vertex -2.220000e+01 -1.105000e+01 0.000000e+00
      endloop
   endfacet
   facet normal 0.000000e+00 0.000000e+00 -1.000000e+00
      outer loop
         vertex -2.220000e+01 -1.105000e+01 0.000000e+00
         vertex -2.320000e+01 -1.205000e+01 0.000000e+00
         vertex -2.306602e+01 -1.155000e+01 0.000000e+00
      endloop
   endfacet
   facet normal 0.000000e+00 0.000000e+00 -1.000000e+00
      outer loop
         vertex 1.735703e+01 -7.776436e+00 0.000000e+00
         vertex 6.400000e+00 -1.200000e+01 0.000000e+00
         vertex 6.400000e+00 1.200000e+01 0.000000e+00
      endloop
   endfacet
   facet normal 0.000000e+00 0.000000e+00 -1.000000e+00
      outer loop
         vertex 2.320000e+01 -1.620000e+01 0.000000e+00
         vertex 2.200000e+00 -1.200000e+01 0.000000e+00
         vertex 6.400000e+00 -1.200000e+01 0.000000e+00
      endloop
   endfacet
   facet normal -0.000000e+00 -0.000000e+00 -1.000000e+00
      outer loop
         vertex -2.200000e+00 1.200000e+01 0.000000e+00
         vertex 2.200000e+00 1.200000e+01 0.000000e+00
         vertex 2.200000e+00 -1.200000e+01 0.000000e+00
      endloop
   endfacet
   facet normal 0.000000e+00 0.000000e+00 -1.000000e+00
      outer loop
         vertex 2.320000e+01 1.620000e+01 0.000000e+00
         vertex 6.400000e+00 1.200000e+01 0.000000e+00
         vertex 2.200000e+00 1.200000e+01 0.000000e+00
      endloop
   endfacet
   facet normal 0.000000e+00 0.000000e+00 -1.000000e+00
      outer loop
         vertex 2.200000e+00 -1.200000e+01 0.000000e+00
         vertex -2.200000e+00 -1.200000e+01 0.000000e+00
         vertex -2.200000e+00 1.200000e+01 0.000000e+00
      endloop
   endfacet
   facet normal 0.000000e+00 -0.000000e+00 -1.000000e+00
      outer loop
         vertex -2.320000e+01 -1.620000e+01 0.000000e+00
         vertex -6.400000e+00 -1.200000e+01 0.000000e+00
         vertex -2.200000e+00 -1.200000e+01 0.000000e+00
      endloop
   endfacet
   facet normal 0.000000e+00 -0.000000e+00 -1.000000e+00
      outer loop
         vertex -1.735703e+01 7.776436e+00 0.000000e+00
         vertex -6.400000e+00 1.200000e+01 0.000000e+00
         vertex -6.400000e+00 -1.200000e+01 0.000000e+00
      endloop
   endfacet
   facet normal 0.000000e+00 0.000000e+00 -1.000000e+00
      outer loop
         vertex -2.320000e+01 1.620000e+01 0.000000e+00
         vertex -2.200000e+00 1.200000e+01 0.000000e+00
         vertex -6.400000e+00 1.200000e+01 0.000000e+00
      endloop
   endfacet
   facet normal -0.000000e+00 0.000000e+00 -1.000000e+00
      outer loop
         vertex -2.200000e+00 -1.200000e+01 0.000000e+00
         vertex 2.200000e+00 -1.200000e+01 0.000000e+00
         vertex -2.320000e+01 -1.620000e+01 0.000000e+00
      endloop
   endfacet
   facet normal 0.000000e+00 -0.000000e+00 -1.000000e+00
      outer loop
         vertex 6.400000e+00 -1.200000e+01 0.000000e+00
         vertex 1.832405e+01 -1.122595e+01 0.000000e+00
         vertex 2.320000e+01 -1.620000e+01 0.000000e+00
      endloop
   endfacet
   facet normal 0.000000e+00 0.000000e+00 -1.000000e+00
      outer loop
         vertex 2.320000e+01 6.050000e+00 0.000000e+00
         vertex 1.961924e+01 -6.605852e+00 0.000000e+00
         vertex 1.961924e+01 6.605852e+00 0.000000e+00
      endloop
   endfacet
   facet normal -0.000000e+00 -0.000000e+00 -1.000000e+00
      outer loop
         vertex 6.400000e+00 1.200000e+01 0.000000e+00
         vertex 1.735703e+01 7.776436e+00 0.000000e+00
         vertex 1.735703e+01 -7.776436e+00 0.000000e+00
      endloop
   endfacet
   facet normal 0.000000e+00 0.000000e+00 -1.000000e+00
      outer loop
         vertex 2.320000e+01 1.620000e+01 0.000000e+00
         vertex 1.832405e+01 1.122595e+01 0.000000e+00
         vertex 6.400000e+00 1.200000e+01 0.000000e+00
      endloop
   endfacet
   facet normal 0.000000e+00 0.000000e+00 -1.000000e+00
      outer loop
         vertex -2.200000e+00 1.200000e+01 0.000000e+00
         vertex -2.320000e+01 1.620000e+01 0.000000e+00
         vertex 2.200000e+00 1.200000e+01 0.000000e+00
      endloop
   endfacet
   facet normal 0.000000e+00 0.000000e+00 -1.000000e+00
      outer loop
         vertex -6.400000e+00 1.200000e+01 0.000000e+00
         vertex -1.832405e+01 1.122595e+01 0.000000e+00
         vertex -2.320000e+01 1.620000e+01 0.000000e+00
      endloop
   endfacet
   facet normal 0.000000e+00 -0.000000e+00 -1.000000e+00
      outer loop
         vertex -2.320000e+01 -6.050000e+00 0.000000e+00
         vertex -1.961924e+01 6.605852e+00 0.000000e+00
         vertex -1.961924e+01 -6.605852e+00 0.000000e+00
      endloop
   endfacet
   facet normal 0.000000e+00 0.000000e+00 -1.000000e+00
      outer loop
         vertex -6.400000e+00 -1.200000e+01 0.000000e+00
         vertex -1.735703e+01 -7.776436e+00 0.000000e+00
         vertex -1.735703e+01 7.776436e+00 0.000000e+00
      endloop
   endfacet
   facet normal 0.000000e+00 -0.000000e+00 -1.000000e+00
      outer loop
         vertex -2.320000e+01 -1.620000e+01 0.000000e+00
         vertex -1.832405e+01 -1.122595e+01 0.000000e+00
         vertex -6.400000e+00 -1.200000e+01 0.000000e+00
      endloop
   endfacet
endsolid
